<svg width="102" height="128" viewBox="0 0 102 128" fill="none" xmlns="http://www.w3.org/2000/svg" aria-hidden="true">
<path d="M26.6 101.001H49.686V78.5336H66.7626L67.7116 59.5965H50.635V46.7583L71.505 47.0785L73.403 33.2771L26.6 32.9569V101.001ZM66.2912 0.0825835C96.2437 0.513425 101.144 21.4577 101.094 32.555C101.02 49.248 93.9932 56.8498 87.2291 60.8227C94.1135 66.6272 101.618 71.5252 101.99 90.9042C102.705 128.235 68.0002 127.546 68.0002 127.546L0.466614 128V0L66.2912 0.0825835Z" fill="url(#paint0_linear_476_381)"/>
<path d="M74.4444 26.3125L73.3356 33.2726H30.9444V100.996H23.3546V25.8906L74.4444 26.3125V26.3125Z" fill="#A3DAF6"/>
<defs>
<linearGradient id="paint0_linear_476_381" x1="11.2005" y1="126.25" x2="99.0557" y2="9.21748" gradientUnits="userSpaceOnUse">
<stop stop-color="#008AC1"/>
<stop offset="1" stop-color="#00AADE"/>
</linearGradient>
</defs>
</svg>
