<svg width="128" height="128" viewBox="0 0 128 128" fill="none" xmlns="http://www.w3.org/2000/svg" aria-hidden="true">
<g clip-path="url(#clip0_1:19)">
<path d="M63.6978 7.85375C63.8281 7.47562 63.9432 7.16906 64.0417 6.93624C64.2366 7.26175 64.4867 7.73566 64.7866 8.34527C65.3978 9.58789 66.1957 11.3539 67.1195 13.4761C68.9662 17.7184 71.3045 23.3577 73.637 29.0198C74.165 30.3017 74.6927 31.5847 75.2143 32.8529C76.9957 37.1838 78.7057 41.341 80.112 44.6839C81.0209 46.8443 81.8048 48.6691 82.4004 49.983C82.6978 50.639 82.9509 51.1736 83.1507 51.5609C83.2502 51.7537 83.3402 51.9174 83.4186 52.044C83.4577 52.107 83.4978 52.1674 83.5383 52.2202C83.573 52.2654 83.6312 52.3364 83.7099 52.3936C83.8008 52.4597 83.8976 52.4889 83.9484 52.5025C84.0103 52.5192 84.0762 52.5308 84.1397 52.5396C84.2675 52.5572 84.4258 52.5684 84.6053 52.5754C84.9666 52.5895 85.4567 52.5881 86.0509 52.5744C87.2416 52.547 88.8829 52.4696 90.8177 52.3607C93.8294 52.1912 97.5666 51.9445 101.449 51.6882C102.557 51.6151 103.676 51.5412 104.793 51.4681C109.832 51.1386 114.837 50.825 118.591 50.67C120.469 50.5924 122.024 50.555 123.109 50.5742C123.509 50.5813 123.836 50.596 124.088 50.6178C123.839 50.9037 123.465 51.2881 122.978 51.7616C121.985 52.7269 120.552 54.0315 118.82 55.5659C115.356 58.6331 110.715 62.5997 106.051 66.5676C104.995 67.4659 103.938 68.3642 102.893 69.2521C99.3242 72.2847 95.8988 75.1957 93.1541 77.5662C91.3803 79.0982 89.887 80.4077 88.8215 81.3801C88.2895 81.8657 87.8593 82.2717 87.5527 82.5813C87.4 82.7355 87.2722 82.8717 87.176 82.9854C87.1281 83.042 87.0831 83.0989 87.0454 83.1537C87.0132 83.2007 86.9636 83.2779 86.9335 83.3704C86.8988 83.4774 86.9009 83.5784 86.9036 83.6309C86.9069 83.695 86.9162 83.7612 86.9275 83.8244C86.9503 83.9513 86.9885 84.1054 87.0373 84.2783C87.1356 84.6262 87.2884 85.0919 87.485 85.6528C87.8791 86.7767 88.4598 88.3138 89.1613 90.1202C90.2529 92.9317 91.6422 96.4092 93.0855 100.022C93.4974 101.053 93.9137 102.095 94.3288 103.136C96.1993 107.826 98.0443 112.49 99.3515 116.011C100.006 117.773 100.522 119.241 100.839 120.279C100.956 120.662 101.043 120.978 101.1 121.224C100.751 121.075 100.27 120.839 99.6692 120.522C98.4444 119.876 96.7607 118.916 94.766 117.742C90.7784 115.395 85.572 112.208 80.3569 108.998C79.1759 108.271 77.9946 107.543 76.8269 106.823C72.8403 104.367 69.0138 102.009 65.9114 100.131C63.9062 98.9176 62.1994 97.9021 60.9453 97.1893C60.319 96.8333 59.8 96.5496 59.4109 96.3537C59.217 96.2561 59.0479 96.1766 58.9101 96.1203C58.8415 96.0923 58.7735 96.0671 58.7097 96.0482C58.6551 96.032 58.5663 96.0087 58.469 96.0087C58.3565 96.0087 58.2612 96.0419 58.212 96.0607C58.1521 96.0837 58.092 96.113 58.0354 96.1432C57.9217 96.2041 57.787 96.2881 57.6377 96.3879C57.3371 96.5889 56.9415 96.8781 56.4688 97.2385C55.5216 97.9605 54.2393 98.9878 52.738 100.213C50.4008 102.121 47.5219 104.517 44.5311 107.007C43.6786 107.717 42.817 108.434 41.9563 109.15C38.0734 112.378 34.2082 115.574 31.2631 117.905C29.7893 119.072 28.5533 120.016 27.6635 120.639C27.3358 120.868 27.0625 121.049 26.846 121.179C26.8796 120.801 26.9558 120.271 27.0716 119.601C27.3075 118.237 27.7 116.339 28.2 114.079C29.1996 109.562 30.6225 103.625 32.0637 97.6732C32.39 96.3255 32.7173 94.9771 33.0407 93.6443C34.1452 89.0937 35.2053 84.7257 36.0323 81.1948C36.5669 78.9128 37.0053 76.9756 37.2957 75.5627C37.4407 74.8571 37.5502 74.2758 37.6162 73.8451C37.6491 73.6306 37.6724 73.4453 37.6834 73.2968C37.6889 73.2228 37.6918 73.1504 37.6901 73.0839C37.6886 73.0269 37.6833 72.9352 37.6533 72.8428C37.6185 72.7358 37.5574 72.6554 37.5244 72.6144C37.484 72.5645 37.4376 72.5164 37.3913 72.472C37.2983 72.3826 37.1768 72.2805 37.0357 72.1693C36.7517 71.9455 36.3544 71.6587 35.8656 71.3205C34.8862 70.6428 33.5129 69.7406 31.8836 68.6915C29.3475 67.0584 26.1791 65.0613 22.8874 62.9866C21.9486 62.3949 20.9997 61.7968 20.0526 61.199C15.7823 58.5039 11.5485 55.8154 8.42112 53.7348C6.85613 52.6937 5.57611 51.81 4.70899 51.1562C4.38964 50.9154 4.13364 50.7112 3.94266 50.5456C4.31247 50.4608 4.84048 50.3693 5.51291 50.2726C6.88358 50.0753 8.80977 49.8621 11.1135 49.6394C15.7189 49.194 21.8047 48.7127 27.9105 48.2441C29.293 48.138 30.6766 48.0326 32.0441 47.9284C36.7133 47.5725 41.1952 47.231 44.8088 46.9265C47.1444 46.7297 49.1221 46.548 50.5557 46.3876C51.2716 46.3074 51.8582 46.2319 52.2882 46.1616C52.5024 46.1266 52.6859 46.0916 52.8305 46.0561C52.9025 46.0384 52.9723 46.0189 53.0351 45.9967C53.0888 45.9777 53.1743 45.9443 53.253 45.8871C53.3439 45.821 53.4016 45.7381 53.4303 45.694C53.4653 45.6402 53.4967 45.5812 53.5247 45.5234C53.5809 45.4073 53.6405 45.2603 53.7026 45.0917C53.8277 44.7525 53.9777 44.2859 54.1483 43.7165C54.4902 42.5756 54.9238 40.9908 55.4181 39.117C56.1876 36.2002 57.1079 32.5694 58.064 28.7975C58.3366 27.722 58.6121 26.635 58.8879 25.5498C60.1316 20.6556 61.3801 15.7983 62.3925 12.181C62.899 10.3709 63.3439 8.88047 63.6978 7.85375ZM3.59147 50.1959C3.59151 50.1959 3.59205 50.1968 3.59296 50.1984C3.59188 50.1967 3.59142 50.1959 3.59147 50.1959ZM64.264 6.49614C64.2651 6.49476 64.2657 6.49414 64.2657 6.49419C64.2657 6.49423 64.2651 6.49491 64.264 6.49614Z" fill="url(#paint0_linear_1:19)" stroke="url(#paint1_linear_1:19)"/>
<path style="mix-blend-mode:luminosity" d="M13 57.2522C22.3091 63.3717 38.6021 73.3286 38.8571 74.117C38.8571 74.117 35.0779 65.8353 29.3567 61.9653C23.6731 58.1207 13.1383 57.2633 13 57.2522V57.2522ZM35.0756 116C43.7438 108.994 58.202 96.4993 59.027 96.4993C59.027 96.4993 50.0212 97.552 44.5907 101.824C39.1957 106.068 35.1288 115.871 35.0756 116ZM97.497 113.056C93.5452 102.607 86.1878 84.9275 86.4427 84.139C86.4427 84.139 84.656 93.0713 87.0209 99.5815C89.3704 106.049 97.3916 112.965 97.497 113.056ZM114 52.4886C102.889 53.0364 83.8841 54.6049 83.2167 54.1177C83.2167 54.1177 91.1182 58.5855 98.0104 58.337C104.857 58.0902 113.882 52.5613 114 52.4886V52.4886ZM61.778 18C58.8631 28.788 54.4746 47.4364 53.8072 47.9237C53.8072 47.9237 60.4773 41.7527 62.3719 35.0889C64.2541 28.4689 61.8102 18.1356 61.778 18V18Z" fill="white" fill-opacity="0.3"/>
<path style="mix-blend-mode:luminosity" d="M13 56.2522C22.3091 62.3717 38.6021 72.3286 38.8571 73.117C38.8571 73.117 35.0779 64.8353 29.3567 60.9653C23.6731 57.1207 13.1383 56.2633 13 56.2522V56.2522ZM35.0756 115C43.7438 107.994 58.202 95.4993 59.027 95.4993C59.027 95.4993 50.0212 96.552 44.5907 100.824C39.1957 105.068 35.1288 114.871 35.0756 115ZM97.497 112.056C93.5452 101.607 86.1878 83.9275 86.4427 83.139C86.4427 83.139 84.656 92.0713 87.0209 98.5815C89.3704 105.049 97.3916 111.965 97.497 112.056ZM114 51.4886C102.889 52.0364 83.8841 53.6049 83.2167 53.1177C83.2167 53.1177 91.1182 57.5855 98.0104 57.337C104.857 57.0902 113.882 51.5613 114 51.4886V51.4886ZM61.778 17C58.8631 27.788 54.4746 46.4364 53.8072 46.9237C53.8072 46.9237 60.4773 40.7527 62.3719 34.0889C64.2541 27.4689 61.8102 17.1356 61.778 17V17Z" fill="url(#paint2_linear_1:19)"/>
<path style="mix-blend-mode:luminosity" fill-rule="evenodd" clip-rule="evenodd" d="M16.855 58.754C15.4882 57.8756 14.1873 57.0327 13 56.2522C13.1383 56.2633 23.6731 57.1207 29.3567 60.9653C34.8977 64.7134 38.6171 72.5997 38.8459 73.0928C38.7417 72.9115 38.0697 72.4055 36.9863 71.6632C35.3325 68.9281 32.6704 65.2068 29.3567 62.9653C25.8426 60.5883 20.4742 59.3532 16.855 58.754ZM38.8571 73.117C38.8571 73.117 38.8534 73.1088 38.8459 73.0928C38.851 73.1016 38.8547 73.1097 38.8571 73.117ZM36.5889 113.77C36.0685 114.195 35.5629 114.606 35.0756 115C35.1288 114.871 39.1957 105.068 44.5907 100.824C49.8502 96.6865 58.4632 95.5688 59.0005 95.5025C58.7013 95.5664 57.3611 96.5842 55.3981 98.1689C52.2869 98.8899 47.8104 100.291 44.5907 102.824C41.1521 105.529 38.2531 110.492 36.5889 113.77ZM59.027 95.4993C59.027 95.4993 59.018 95.5003 59.0005 95.5025C59.0105 95.5004 59.0193 95.4993 59.027 95.4993ZM92.2482 98.6551C94.0912 103.295 96.0291 108.174 97.497 112.056C97.4726 112.035 97.0243 111.648 96.3204 110.986C95.0689 107.757 93.6318 104.139 92.2482 100.655C89.1756 92.9188 86.3664 85.846 86.4375 85.1653C86.4409 85.1479 86.4427 85.139 86.4427 85.139C86.4403 85.1463 86.4386 85.1551 86.4375 85.1653C86.3822 85.4512 85.8969 88.0425 85.8092 91.3562C85.6922 87.1354 86.3715 83.5067 86.4375 83.1653C86.3664 83.846 89.1756 90.9188 92.2482 98.6551ZM86.4427 83.139C86.4427 83.139 86.4409 83.1479 86.4375 83.1653C86.4386 83.1551 86.4403 83.1463 86.4427 83.139ZM99.6953 52.3639C104.657 52.0364 109.873 51.6921 114 51.4886C113.95 51.5195 112.29 52.5366 109.872 53.7147C106.651 53.9048 103.113 54.1383 99.6953 54.3639C95.0304 54.6718 90.591 54.9649 87.4951 55.1119C85.1187 54.1646 83.4533 53.2495 83.2399 53.1307C83.8621 53.409 91.4241 52.9099 99.6953 52.3639ZM83.2167 53.1177C83.2167 53.1177 83.2245 53.1221 83.2399 53.1307C83.2306 53.1265 83.2228 53.1222 83.2167 53.1177ZM58.186 30.9418C59.4091 26.0991 60.6952 21.0073 61.778 17C61.8026 17.1038 63.2404 23.1828 63.0693 28.9977C62.9295 23.8681 61.7998 19.0919 61.778 19C60.6952 23.0073 59.4091 28.0991 58.186 32.9418C56.8899 38.0731 55.6645 42.9246 54.8265 45.91C54.2827 46.4746 53.9132 46.8244 53.8267 46.9055C54.2824 46.3969 56.1467 39.0156 58.186 30.9418ZM53.8072 46.9237C53.8072 46.9237 53.8138 46.9176 53.8267 46.9055C53.8199 46.9132 53.8134 46.9192 53.8072 46.9237Z" fill="black" fill-opacity="0.07"/>
<path style="mix-blend-mode:luminosity" fill-rule="evenodd" clip-rule="evenodd" d="M14.8451 57.4566C14.206 57.042 13.589 56.6394 13 56.2522C13.1383 56.2633 23.6731 57.1207 29.3567 60.9653C34.8977 64.7134 38.6171 72.5997 38.8459 73.0928C38.7775 72.9737 38.4642 72.7146 37.9503 72.3405C36.5045 69.6889 33.4205 64.7142 29.3567 61.9653C25.107 59.0907 18.1453 57.8861 14.8451 57.4566ZM38.8571 73.117C38.8571 73.117 38.8534 73.1088 38.8459 73.0928C38.851 73.1016 38.8547 73.1097 38.8571 73.117ZM35.7774 114.431C35.5396 114.624 35.3056 114.814 35.0756 115C35.1288 114.871 39.1957 105.068 44.5907 100.824C49.8502 96.6865 58.4632 95.5688 59.0005 95.5025C58.7993 95.5455 58.1271 96.02 57.1112 96.8083C54.1679 97.3648 48.468 98.7738 44.5907 101.824C40.4974 105.044 37.1687 111.464 35.7774 114.431ZM59.027 95.4993C59.027 95.4993 59.018 95.5003 59.0005 95.5025C59.0105 95.5004 59.0193 95.4993 59.027 95.4993ZM92.2482 98.6551C94.0912 103.295 96.0291 108.174 97.497 112.056C97.4806 112.042 97.271 111.861 96.9201 111.542C95.5416 107.947 93.8587 103.71 92.2482 99.6551C89.1756 91.9188 86.3664 84.846 86.4375 84.1653C86.4409 84.1479 86.4427 84.139 86.4427 84.139C86.4403 84.1463 86.4386 84.1551 86.4375 84.1653C86.3794 84.4656 85.8466 87.3109 85.7991 90.8651C85.7443 86.8573 86.3741 83.4933 86.4375 83.1653C86.3664 83.846 89.1756 90.9188 92.2482 98.6551ZM86.4427 83.139C86.4427 83.139 86.4409 83.1479 86.4375 83.1653C86.4386 83.1551 86.4403 83.1463 86.4427 83.139ZM99.6953 52.3639C104.657 52.0364 109.873 51.6921 114 51.4886C113.967 51.5089 113.241 51.9536 112.063 52.5897C108.305 52.7956 103.908 53.0858 99.6953 53.3639C93.8121 53.7523 88.2878 54.1169 85.3643 54.1949C84.1616 53.6385 83.3814 53.2095 83.2399 53.1307C83.8621 53.409 91.4241 52.9099 99.6953 52.3639ZM83.2167 53.1177C83.2167 53.1177 83.2245 53.1221 83.2399 53.1307C83.2306 53.1265 83.2228 53.1222 83.2167 53.1177ZM58.186 30.9418C59.4091 26.0991 60.6952 21.0073 61.778 17C61.8019 17.1009 63.1615 22.8493 63.0799 28.5121C63.0061 23.1919 61.8005 18.095 61.778 18C60.6952 22.0073 59.4091 27.0991 58.186 31.9418C56.6564 37.9975 55.2253 43.6637 54.4131 46.3326C54.098 46.6494 53.889 46.8471 53.8267 46.9055C54.2824 46.3969 56.1467 39.0156 58.186 30.9418ZM53.8072 46.9237C53.8072 46.9237 53.8138 46.9176 53.8267 46.9055C53.8199 46.9132 53.8134 46.9192 53.8072 46.9237Z" fill="black" fill-opacity="0.15"/>
<path d="M72.0901 58.4658C71.9653 59.2943 71.4986 59.9901 70.8466 60.4425C70.2101 60.8844 69.3964 61.0934 68.5532 60.9664C66.8467 60.7094 65.6637 59.173 65.9102 57.5346C66.1574 55.8961 67.7406 54.7766 69.4471 55.0336C70.257 55.1557 70.988 55.5783 71.4838 56.2091C71.4891 56.2163 71.4952 56.2246 71.5008 56.2318C71.9967 56.8754 72.2087 57.6789 72.0901 58.4658ZM72.3312 47.9164C72.2707 48.6232 71.9162 49.2393 71.3893 49.6599C70.8731 50.0715 70.1746 50.5039 69.4625 50.3965H69.4618C68.0169 50.1785 66.939 48.8685 67.0584 47.4663L67.0588 47.4655C67.1786 46.0629 68.4561 45.027 69.9119 45.1513H69.9127C70.604 45.2107 71.2453 45.5289 71.6978 46.038C71.7034 46.0444 71.7091 46.0501 71.7144 46.0565C72.1672 46.5747 72.3887 47.2437 72.3312 47.9164V47.9164ZM71.9223 38.1869C71.9139 38.7767 71.6581 39.3129 71.2442 39.697C70.8387 40.0739 70.2842 40.3693 69.6871 40.3397L69.6855 40.3397C68.47 40.2787 67.498 39.3035 67.5142 38.1258V38.1244C67.5312 36.9469 68.5309 36.0062 69.7479 36.0231H69.749C70.3277 36.0315 70.8791 36.2597 71.2858 36.6581C71.2911 36.6632 71.2964 36.6682 71.3013 36.6733C71.7064 37.0787 71.9302 37.6229 71.9223 38.1869V38.1869ZM70.8413 29.4516C70.8731 29.9328 70.7015 30.3901 70.3885 30.734C70.0801 31.0728 69.6425 31.2916 69.1556 31.3235L69.1538 31.3237C68.1597 31.3878 67.3029 30.6558 67.2394 29.6878V29.6859C67.1771 28.7181 67.9318 27.8811 68.9255 27.8159L68.9274 27.8157C69.4006 27.7853 69.8666 27.9374 70.2249 28.2391C70.229 28.2431 70.2339 28.2471 70.2389 28.2512C70.5949 28.5576 70.8111 28.989 70.8413 29.4516V29.4516ZM69.1273 21.9582C69.187 22.3419 69.0846 22.7245 68.8571 23.027C68.6322 23.3265 68.2939 23.5339 67.9069 23.5939C67.9061 23.594 67.9054 23.5941 67.905 23.5942C67.1109 23.716 66.3701 23.1838 66.2492 22.4046C66.2492 22.4038 66.2492 22.4029 66.2488 22.4021C66.129 21.623 66.5625 20.9076 67.3407 20.7071C67.3411 20.7069 67.3422 20.7067 67.343 20.7064C67.7141 20.6114 68.1072 20.6639 68.4368 20.8525C68.4413 20.8552 68.4462 20.8578 68.4508 20.8605C68.7777 21.0522 69.0695 21.5869 69.1273 21.9582V21.9582ZM66.5376 16.0181C66.6551 16.3063 66.6498 16.6269 66.5293 16.9097C66.4083 17.1913 66.1812 17.4172 65.8913 17.5353C65.8905 17.5356 65.8898 17.5361 65.889 17.5364C65.2907 17.7787 64.6104 17.4955 64.3689 16.9028C64.3685 16.9018 64.3681 16.9009 64.3677 16.9C64.1274 16.3071 64.4165 15.6296 65.0144 15.3857C65.0156 15.3852 65.0163 15.385 65.0174 15.3845C65.3032 15.2687 65.6237 15.2694 65.9075 15.3869C65.9117 15.3886 65.9162 15.3903 65.92 15.3921C66.2008 15.5119 66.4227 15.7366 66.5376 16.0181ZM64.7706 12.7898C64.8704 13.035 64.8689 13.3099 64.7665 13.5539C64.6637 13.7979 64.4687 13.9912 64.223 14.0913C64.2219 14.0918 64.2211 14.092 64.2203 14.0925C63.7105 14.2987 63.13 14.0534 62.9221 13.544C62.9217 13.5429 62.9213 13.542 62.9206 13.541C62.7142 13.0313 62.9595 12.4504 63.469 12.2426C63.4701 12.2421 63.4712 12.2417 63.472 12.2413C63.7162 12.1426 63.9902 12.1444 64.2328 12.2467C64.2366 12.2482 64.2408 12.2498 64.2442 12.2515C64.4834 12.3554 64.672 12.5485 64.7706 12.7898V12.7898ZM54.5793 59.4326C55.3286 59.8072 55.8462 60.4662 56.075 61.2261C56.2985 61.9679 56.2458 62.8064 55.8644 63.5691C55.0927 65.1126 53.2659 65.7629 51.7838 65.0223C50.302 64.2809 49.7266 62.4292 50.4983 60.8857C50.8647 60.1531 51.4925 59.5885 52.2456 59.3118C52.2539 59.309 52.2638 59.3058 52.2725 59.3027C53.0378 59.03 53.8676 59.0767 54.5793 59.4327L54.5793 59.4326ZM44.6207 55.9433C45.2742 56.2192 45.7505 56.7468 45.9878 57.3779C46.2197 57.9961 46.4151 58.794 46.0929 59.438L46.0927 59.4387C45.4388 60.7455 43.8598 61.3659 42.5632 60.819L42.5626 60.8184C41.2657 60.271 40.6752 58.7359 41.2433 57.3897L41.2435 57.389C41.5136 56.7499 42.0145 56.2383 42.6384 55.9653C42.6464 55.9619 42.6536 55.9581 42.6611 55.9551C43.2939 55.6846 43.9985 55.6807 44.6206 55.9434L44.6207 55.9433ZM35.2409 53.3257C35.7993 53.5158 36.2303 53.9249 36.4677 54.4372C36.7008 54.9393 36.8104 55.558 36.5977 56.1168L36.5972 56.1182C36.1636 57.2553 34.9358 57.8785 33.8207 57.4991L33.8194 57.4987C32.7048 57.1186 32.119 55.8772 32.5112 54.725L32.5115 54.7239C32.6983 54.1761 33.0857 53.7222 33.5903 53.4586C33.5968 53.4551 33.6032 53.4518 33.6096 53.4484C34.1204 53.1883 34.707 53.1437 35.2409 53.3255V53.3257ZM26.5992 51.6544C27.0666 51.7728 27.4485 52.0774 27.6789 52.4813C27.9059 52.8793 27.9787 53.3631 27.8586 53.836L27.8581 53.8378C27.6119 54.803 26.651 55.3917 25.7108 55.153L25.7089 55.1524C24.7693 54.9126 24.2064 53.9361 24.4515 52.971L24.4519 52.9691C24.5692 52.5097 24.8579 52.1135 25.2555 51.8659C25.2606 51.8632 25.266 51.8599 25.2713 51.8565C25.6728 51.6126 26.1499 51.5403 26.5992 51.6545L26.5992 51.6544ZM18.9429 50.9689C19.3262 51.0307 19.6585 51.2463 19.8759 51.5562C20.0912 51.8626 20.1839 52.2484 20.1214 52.635C20.1213 52.6358 20.1211 52.6365 20.1211 52.6369C19.9916 53.4298 19.2565 53.9699 18.4781 53.8441C18.4773 53.8438 18.4765 53.8436 18.4755 53.8437C17.6976 53.7169 17.1512 53.0835 17.2009 52.2814C17.2009 52.281 17.201 52.2799 17.201 52.2791C17.2253 51.8967 17.3967 51.5391 17.6779 51.2839C17.6819 51.2804 17.6858 51.2768 17.6898 51.273C17.9732 51.0213 18.5719 50.909 18.9429 50.9688L18.9429 50.9689ZM12.4932 51.5963C12.8037 51.5736 13.1069 51.6777 13.3386 51.8797C13.5691 52.0818 13.7137 52.3676 13.7365 52.6798C13.7365 52.6806 13.7367 52.6815 13.7368 52.6823C13.7824 53.3262 13.3028 53.8857 12.6644 53.9322C12.6635 53.9323 12.6625 53.9324 12.6615 53.9324C12.0233 53.9778 11.4683 53.4935 11.4211 52.8495C11.421 52.8482 11.421 52.8474 11.4209 52.8462C11.399 52.5387 11.4987 52.2341 11.6982 52.0004C11.7011 51.997 11.7041 51.9933 11.7071 51.9902C11.9077 51.7602 12.19 51.6186 12.4932 51.5963L12.4932 51.5963ZM8.87696 52.2791C9.14094 52.2599 9.4019 52.3464 9.60235 52.5192C9.80265 52.6924 9.92624 52.9376 9.94555 53.2022C9.94559 53.2034 9.94561 53.2042 9.94581 53.2051C9.98434 53.7537 9.57173 54.23 9.02295 54.2703C9.02182 54.2703 9.02081 54.2704 9.01964 54.2708C8.47111 54.3095 7.99446 53.8968 7.95424 53.348C7.95419 53.3468 7.95411 53.3456 7.95399 53.3447C7.93554 53.082 8.02191 52.822 8.1942 52.6228C8.19684 52.6197 8.1996 52.6164 8.20232 52.6134C8.37499 52.4179 8.61692 52.2982 8.87695 52.279L8.87696 52.2791ZM50.0876 76.3852C50.6755 75.7882 51.4621 75.4997 52.2554 75.5169C53.0301 75.5335 53.8112 75.8427 54.4188 76.4411C55.6482 77.6521 55.7022 79.5904 54.5399 80.771C53.3768 81.9513 51.4379 81.9263 50.2085 80.7154C49.6249 80.1406 49.282 79.3691 49.2516 78.5673C49.2515 78.5582 49.2515 78.548 49.2511 78.5389C49.2285 77.7267 49.529 76.952 50.0876 76.3852L50.0876 76.3852ZM43.6917 84.7781C44.1561 84.2418 44.805 83.9518 45.4785 83.9212C46.1381 83.8917 46.9573 83.9525 47.4703 84.4578L47.4709 84.4582C48.5117 85.4839 48.6137 87.1773 47.6929 88.2415L47.6922 88.2419C46.7708 89.3062 45.1284 89.3934 44.0236 88.4371L44.023 88.4367C43.4987 87.9823 43.1668 87.3479 43.1001 86.6701C43.0992 86.6614 43.098 86.6534 43.0975 86.6451C43.0358 85.9598 43.2498 85.2884 43.6917 84.7779L43.6917 84.7781ZM38.3037 92.8898C38.6571 92.4175 39.1793 92.1341 39.7399 92.0666C40.2895 92.0001 40.9117 92.087 41.3774 92.4619L41.3786 92.4628C42.3261 93.2266 42.5394 94.587 41.834 95.5302L41.8332 95.5313C41.1273 96.474 39.7656 96.6474 38.7909 95.9184L38.79 95.9178C38.3268 95.5708 38.0148 95.0621 37.92 94.5007C37.9187 94.4935 37.9174 94.4864 37.9164 94.4792C37.8269 93.913 37.9657 93.3413 38.3037 92.8897V92.8898ZM34.0437 100.592C34.3009 100.184 34.7085 99.9151 35.1638 99.8208C35.6125 99.728 36.0951 99.8084 36.5077 100.069L36.5093 100.07C37.3512 100.602 37.6141 101.698 37.0965 102.518L37.0954 102.52C36.577 103.339 35.4744 103.573 34.6322 103.042L34.6306 103.041C34.2298 102.787 33.9423 102.39 33.8297 101.935C33.8287 101.93 33.8271 101.924 33.8255 101.917C33.7176 101.46 33.7962 100.984 34.0437 100.592L34.0437 100.592ZM31.0259 107.662C31.2031 107.316 31.5108 107.067 31.8727 106.956C32.2307 106.846 32.6263 106.877 32.9746 107.056C32.9753 107.056 32.976 107.057 32.9764 107.057C33.6904 107.425 33.9769 108.291 33.6167 108.992C33.6162 108.993 33.6157 108.994 33.6155 108.995C33.2545 109.695 32.4833 110.019 31.7359 109.724C31.7354 109.724 31.7344 109.724 31.7336 109.723C31.3775 109.582 31.0904 109.309 30.9346 108.962C30.9325 108.957 30.93 108.952 30.928 108.948C30.7762 108.6 30.8544 107.996 31.0259 107.662L31.0259 107.662ZM29.6295 113.99C29.7038 113.688 29.8965 113.431 30.1603 113.273C30.4236 113.117 30.7402 113.067 31.0442 113.142C31.045 113.142 31.0458 113.142 31.0466 113.143C31.6731 113.298 32.057 113.927 31.904 114.549C31.9038 114.55 31.9035 114.551 31.9033 114.552C31.7493 115.173 31.1171 115.551 30.49 115.397C30.4888 115.396 30.4881 115.396 30.4869 115.396C30.1876 115.322 29.9287 115.133 29.7682 114.871C29.7658 114.867 29.7632 114.863 29.7612 114.859C29.6044 114.597 29.557 114.285 29.6295 113.99L29.6295 113.99ZM29.1614 117.64C29.2248 117.383 29.3876 117.162 29.6139 117.024C29.8405 116.887 30.1119 116.846 30.3695 116.909C30.3707 116.909 30.3714 116.91 30.3723 116.91C30.906 117.043 31.2315 117.582 31.1002 118.117C31.0999 118.118 31.0997 118.119 31.0997 118.12C30.9671 118.653 30.4272 118.979 29.8928 118.848C29.8917 118.848 29.8905 118.847 29.8897 118.847C29.6341 118.784 29.4135 118.621 29.2773 118.396C29.2751 118.392 29.2727 118.388 29.271 118.385C29.1385 118.16 29.0994 117.893 29.1614 117.64L29.1614 117.64ZM64.8224 85.8956C64.4363 85.152 64.405 84.3148 64.6665 83.5655C64.9218 82.834 65.4572 82.1866 66.214 81.7937C67.7457 80.9986 69.6058 81.5462 70.3695 83.0166C71.1325 84.4874 70.5097 86.3237 68.9781 87.1188C68.251 87.4961 67.4113 87.5839 66.6394 87.365C66.6307 87.3623 66.6212 87.359 66.6121 87.3567C65.8326 87.1274 65.1888 86.602 64.8223 85.8956L64.8224 85.8956ZM70.8281 94.572C70.4616 93.9647 70.3863 93.2579 70.5653 92.6079C70.741 91.9714 71.0519 91.2111 71.6911 90.8794L71.6917 90.8789C72.9889 90.2061 74.6309 90.6323 75.3585 91.8369L75.3586 91.8377C76.0861 93.0429 75.6616 94.6319 74.4106 95.387L74.41 95.3874C73.8159 95.7457 73.1099 95.8653 72.4447 95.7193C72.4364 95.7175 72.4284 95.7162 72.4205 95.714C71.7496 95.561 71.1772 95.1499 70.8283 94.5719L70.8281 94.572ZM76.8778 102.203C76.5379 101.721 76.4297 101.137 76.5387 100.583C76.6453 100.039 76.9202 99.4745 77.4207 99.1475L77.422 99.1466C78.4412 98.4815 79.8008 98.6991 80.4799 99.6614L80.4807 99.6625C81.1591 100.625 80.9033 101.974 79.9088 102.675L79.9079 102.676C79.4348 103.009 78.8545 103.149 78.2913 103.066C78.2842 103.065 78.277 103.064 78.2698 103.062C77.7037 102.973 77.2029 102.664 76.8778 102.203H76.8778ZM82.8868 108.635C82.5783 108.264 82.4483 107.793 82.4994 107.331C82.5497 106.876 82.7752 106.441 83.1503 106.129L83.1517 106.128C83.9182 105.492 85.0416 105.581 85.6619 106.326L85.6631 106.328C86.2824 107.074 86.1638 108.195 85.3982 108.832L85.3968 108.833C85.0319 109.136 84.5654 109.287 84.0982 109.253C84.0925 109.252 84.0861 109.252 84.0797 109.252C83.6116 109.213 83.1831 108.991 82.8867 108.635L82.8868 108.635ZM88.6779 113.689C88.4042 113.414 88.2621 113.044 88.2684 112.666C88.2744 112.291 88.426 111.925 88.7039 111.649C88.7044 111.648 88.705 111.648 88.7052 111.647C89.2761 111.082 90.1882 111.077 90.744 111.636C90.7445 111.637 90.745 111.638 90.7458 111.638C91.3007 112.198 91.3704 113.032 90.8587 113.651C90.8585 113.652 90.8578 113.653 90.8573 113.653C90.6129 113.948 90.264 114.137 89.8865 114.178C89.8812 114.178 89.8759 114.179 89.8706 114.18C89.4935 114.217 88.9431 113.956 88.6781 113.689L88.6779 113.689ZM94.2646 116.973C94.0001 116.809 93.816 116.546 93.7473 116.247C93.6796 115.948 93.7307 115.631 93.8957 115.366C93.8961 115.365 93.8965 115.364 93.8969 115.363C94.2385 114.816 94.9553 114.645 95.4991 114.982C95.5 114.983 95.5008 114.983 95.5017 114.984C96.0446 115.322 96.209 116.04 95.8686 116.589C95.8679 116.59 95.8675 116.591 95.8668 116.592C95.7037 116.854 95.4441 117.041 95.1453 117.113C95.1408 117.114 95.1363 117.116 95.1321 117.116C94.8346 117.184 94.523 117.133 94.2646 116.973L94.2646 116.973ZM97.5916 118.546C97.3668 118.406 97.2065 118.183 97.1459 117.925C97.0856 117.668 97.1296 117.397 97.2697 117.171C97.2703 117.17 97.2708 117.169 97.2711 117.169C97.5624 116.702 98.1762 116.559 98.6439 116.849C98.6448 116.85 98.6456 116.851 98.6468 116.851C99.1134 117.142 99.2564 117.756 98.9664 118.224C98.9657 118.225 98.965 118.226 98.9646 118.226C98.8251 118.45 98.6024 118.609 98.346 118.669C98.3422 118.67 98.3377 118.671 98.3339 118.672C98.0793 118.729 97.8132 118.683 97.5916 118.546L97.5916 118.546ZM78.4207 74.8209C77.5942 74.9583 76.7882 74.7294 76.1565 74.2491C75.5396 73.7803 75.0894 73.071 74.9496 72.2298C74.6667 70.5274 75.7623 68.9276 77.3967 68.6556C79.0313 68.3844 80.5852 69.5442 80.8681 71.2466C81.0023 72.0546 80.8263 72.8804 80.3796 73.5469C80.3743 73.5541 80.3683 73.5624 80.3634 73.57C79.9045 74.2405 79.2058 74.6904 78.4207 74.8207L78.4207 74.8209ZM88.5283 71.7902C87.8374 71.9511 87.142 71.8042 86.5791 71.4333C86.0281 71.0695 85.401 70.5388 85.2831 69.8284L85.2828 69.8277C85.0437 68.3861 85.9565 66.9561 87.327 66.6364L87.3278 66.6365C88.6988 66.317 90.0788 67.2119 90.4105 68.6349L90.4107 68.6356C90.5679 69.3114 90.4634 70.0198 90.119 70.6073C90.1145 70.6149 90.1111 70.6217 90.1065 70.6289C89.7537 71.2196 89.1859 71.637 88.5283 71.7903V71.7902ZM97.6553 68.3947C97.0917 68.5691 96.5027 68.4914 96.0095 68.2165C95.5257 67.9473 95.0734 67.5112 94.917 66.9342L94.9166 66.9327C94.599 65.7579 95.2261 64.532 96.3512 64.1835L96.3525 64.1831C97.4776 63.8354 98.6812 64.4955 99.0412 65.6581L99.0416 65.6592C99.2124 66.2121 99.1658 66.8071 98.9125 67.317C98.9093 67.3234 98.9061 67.3302 98.9027 67.3362C98.6424 67.8469 98.194 68.2278 97.6551 68.3945L97.6553 68.3947ZM105.629 64.6673C105.181 64.8462 104.693 64.8243 104.269 64.6329C103.852 64.4443 103.509 64.0957 103.328 63.6426L103.327 63.6408C102.959 62.7153 103.39 61.6742 104.291 61.3147L104.293 61.3141C105.194 60.9557 106.224 61.4149 106.593 62.3397L106.593 62.3415C106.769 62.7821 106.768 63.2723 106.592 63.7063C106.589 63.7116 106.587 63.7173 106.584 63.7233C106.403 64.1566 106.06 64.4956 105.629 64.6673L105.629 64.6673ZM112.226 60.7216C111.88 60.897 111.484 60.9178 111.126 60.7949C110.772 60.6736 110.47 60.4159 110.293 60.0664C110.293 60.0657 110.293 60.065 110.292 60.0647C109.931 59.3471 110.208 58.4781 110.912 58.1223C110.913 58.1221 110.914 58.1218 110.914 58.1212C111.618 57.7665 112.433 57.9577 112.864 58.6359C112.864 58.6362 112.865 58.6372 112.865 58.6378C113.07 58.9614 113.142 59.3515 113.064 59.7232C113.063 59.7285 113.062 59.7338 113.061 59.7391C112.98 60.1092 112.561 60.552 112.226 60.7217V60.7216ZM117.075 56.423C116.837 56.6239 116.531 56.7179 116.225 56.6907C115.919 56.6627 115.634 56.5164 115.432 56.2772C115.432 56.2766 115.431 56.276 115.431 56.2754C115.015 55.7813 115.074 55.0467 115.564 54.6339C115.564 54.6332 115.565 54.6326 115.566 54.632C116.055 54.2201 116.789 54.2858 117.206 54.779C117.207 54.78 117.207 54.7806 117.208 54.7815C117.406 55.0175 117.505 55.3225 117.481 55.6288C117.48 55.6333 117.48 55.6382 117.48 55.6424C117.452 55.9464 117.307 56.2269 117.075 56.4232L117.075 56.423ZM119.599 53.745C119.397 53.9157 119.135 53.9991 118.871 53.9771C118.608 53.9548 118.363 53.829 118.192 53.6263C118.192 53.6254 118.191 53.6247 118.19 53.6242C117.837 53.203 117.891 52.5751 118.311 52.2199C118.312 52.2192 118.313 52.2186 118.313 52.2176C118.734 51.8638 119.362 51.9176 119.718 52.3379C119.718 52.3389 119.719 52.3398 119.72 52.3404C119.889 52.5421 119.972 52.8033 119.95 53.0656C119.949 53.0698 119.949 53.074 119.949 53.0781C119.924 53.3377 119.798 53.5768 119.599 53.7452V53.745ZM66.4721 78.6085C65.473 78.9331 64.4197 79.0578 63.3723 78.9754C62.325 78.8929 61.3041 78.605 60.3681 78.1281C59.432 77.6511 58.599 76.9945 57.9167 76.1956C57.2345 75.3967 56.7162 74.4713 56.3915 73.4722C55.7359 71.4543 55.9087 69.2586 56.8719 67.3681C57.8352 65.4776 59.51 64.0472 61.5279 63.3916C63.5457 62.7359 65.7414 62.9087 67.6319 63.872C69.5224 64.8352 70.9528 66.51 71.6084 68.5279C71.9331 69.527 72.0578 70.5804 71.9753 71.6277C71.8929 72.675 71.605 73.6959 71.128 74.6319C70.6511 75.568 69.9944 76.401 69.1956 77.0833C68.3967 77.7656 67.4713 78.2838 66.4721 78.6085V78.6085Z" fill="white" fill-opacity="0.5"/>
<path d="M72.0901 57.4658C71.9653 58.2943 71.4986 58.9901 70.8466 59.4425C70.2101 59.8844 69.3964 60.0934 68.5532 59.9664C66.8467 59.7094 65.6637 58.173 65.9102 56.5346C66.1574 54.8961 67.7406 53.7766 69.4471 54.0336C70.257 54.1557 70.988 54.5783 71.4838 55.2091C71.4891 55.2163 71.4952 55.2246 71.5008 55.2318C71.9967 55.8754 72.2087 56.6789 72.0901 57.4658ZM72.3312 46.9164C72.2707 47.6232 71.9162 48.2393 71.3893 48.6599C70.8731 49.0715 70.1746 49.5039 69.4625 49.3965H69.4618C68.0169 49.1785 66.939 47.8685 67.0584 46.4663L67.0588 46.4655C67.1786 45.0629 68.4561 44.027 69.9119 44.1513H69.9127C70.604 44.2107 71.2453 44.5289 71.6978 45.038C71.7034 45.0444 71.7091 45.0501 71.7144 45.0565C72.1672 45.5747 72.3887 46.2437 72.3312 46.9164V46.9164ZM71.9223 37.1869C71.9139 37.7767 71.6581 38.3129 71.2442 38.697C70.8387 39.0739 70.2842 39.3693 69.6871 39.3397L69.6855 39.3397C68.47 39.2787 67.498 38.3035 67.5142 37.1258V37.1244C67.5312 35.9469 68.5309 35.0062 69.7479 35.0231H69.749C70.3277 35.0315 70.8791 35.2597 71.2858 35.6581C71.2911 35.6632 71.2964 35.6682 71.3013 35.6733C71.7064 36.0787 71.9302 36.6229 71.9223 37.1869V37.1869ZM70.8413 28.4516C70.8731 28.9328 70.7015 29.3901 70.3885 29.734C70.0801 30.0728 69.6425 30.2916 69.1556 30.3235L69.1538 30.3237C68.1597 30.3878 67.3029 29.6558 67.2394 28.6878V28.6859C67.1771 27.7181 67.9318 26.8811 68.9255 26.8159L68.9274 26.8157C69.4006 26.7853 69.8666 26.9374 70.2249 27.2391C70.229 27.2431 70.2339 27.2471 70.2389 27.2512C70.5949 27.5576 70.8111 27.989 70.8413 28.4516V28.4516ZM69.1273 20.9582C69.187 21.3419 69.0846 21.7245 68.8571 22.027C68.6322 22.3265 68.2939 22.5339 67.9069 22.5939C67.9061 22.594 67.9054 22.5941 67.905 22.5942C67.1109 22.716 66.3701 22.1838 66.2492 21.4046C66.2492 21.4038 66.2492 21.4029 66.2488 21.4021C66.129 20.623 66.5625 19.9076 67.3407 19.7071C67.3411 19.7069 67.3422 19.7067 67.343 19.7064C67.7141 19.6114 68.1072 19.6639 68.4368 19.8525C68.4413 19.8552 68.4462 19.8578 68.4508 19.8605C68.7777 20.0522 69.0695 20.5869 69.1273 20.9582V20.9582ZM66.5376 15.0181C66.6551 15.3063 66.6498 15.6269 66.5293 15.9097C66.4083 16.1913 66.1812 16.4172 65.8913 16.5353C65.8905 16.5356 65.8898 16.5361 65.889 16.5364C65.2907 16.7787 64.6104 16.4955 64.3689 15.9028C64.3685 15.9018 64.3681 15.9009 64.3677 15.9C64.1274 15.3071 64.4165 14.6296 65.0144 14.3857C65.0156 14.3852 65.0163 14.385 65.0174 14.3845C65.3032 14.2687 65.6237 14.2694 65.9075 14.3869C65.9117 14.3886 65.9162 14.3903 65.92 14.3921C66.2008 14.5119 66.4227 14.7366 66.5376 15.0181ZM64.7706 11.7898C64.8704 12.035 64.8689 12.3099 64.7665 12.5539C64.6637 12.7979 64.4687 12.9912 64.223 13.0913C64.2219 13.0918 64.2211 13.092 64.2203 13.0925C63.7105 13.2987 63.13 13.0534 62.9221 12.544C62.9217 12.5429 62.9213 12.542 62.9206 12.541C62.7142 12.0313 62.9595 11.4504 63.469 11.2426C63.4701 11.2421 63.4712 11.2417 63.472 11.2413C63.7162 11.1426 63.9902 11.1444 64.2328 11.2467C64.2366 11.2482 64.2408 11.2498 64.2442 11.2515C64.4834 11.3554 64.672 11.5485 64.7706 11.7898V11.7898ZM54.5793 58.4326C55.3286 58.8072 55.8462 59.4662 56.075 60.2261C56.2985 60.9679 56.2458 61.8064 55.8644 62.5691C55.0927 64.1126 53.2659 64.7629 51.7838 64.0223C50.302 63.2809 49.7266 61.4292 50.4983 59.8857C50.8647 59.1531 51.4925 58.5885 52.2456 58.3118C52.2539 58.309 52.2638 58.3058 52.2725 58.3027C53.0378 58.03 53.8676 58.0767 54.5793 58.4327L54.5793 58.4326ZM44.6207 54.9433C45.2742 55.2192 45.7505 55.7468 45.9878 56.3779C46.2197 56.9961 46.4151 57.794 46.0929 58.438L46.0927 58.4387C45.4388 59.7455 43.8598 60.3659 42.5632 59.819L42.5626 59.8184C41.2657 59.271 40.6752 57.7359 41.2433 56.3897L41.2435 56.389C41.5136 55.7499 42.0145 55.2383 42.6384 54.9653C42.6464 54.9619 42.6536 54.9581 42.6611 54.9551C43.2939 54.6846 43.9985 54.6807 44.6206 54.9434L44.6207 54.9433ZM35.2409 52.3257C35.7993 52.5158 36.2303 52.9249 36.4677 53.4372C36.7008 53.9393 36.8104 54.558 36.5977 55.1168L36.5972 55.1182C36.1636 56.2553 34.9358 56.8785 33.8207 56.4991L33.8194 56.4987C32.7048 56.1186 32.119 54.8772 32.5112 53.725L32.5115 53.7239C32.6983 53.1761 33.0857 52.7222 33.5903 52.4586C33.5968 52.4551 33.6032 52.4518 33.6096 52.4484C34.1204 52.1883 34.707 52.1437 35.2409 52.3255V52.3257ZM26.5992 50.6544C27.0666 50.7728 27.4485 51.0774 27.6789 51.4813C27.9059 51.8793 27.9787 52.3631 27.8586 52.836L27.8581 52.8378C27.6119 53.803 26.651 54.3917 25.7108 54.153L25.7089 54.1524C24.7693 53.9126 24.2064 52.9361 24.4515 51.971L24.4519 51.9691C24.5692 51.5097 24.8579 51.1135 25.2555 50.8659C25.2606 50.8632 25.266 50.8599 25.2713 50.8565C25.6728 50.6126 26.1499 50.5403 26.5992 50.6545L26.5992 50.6544ZM18.9429 49.9689C19.3262 50.0307 19.6585 50.2463 19.8759 50.5562C20.0912 50.8626 20.1839 51.2484 20.1214 51.635C20.1213 51.6358 20.1211 51.6365 20.1211 51.6369C19.9916 52.4298 19.2565 52.9699 18.4781 52.8441C18.4773 52.8438 18.4765 52.8436 18.4755 52.8437C17.6976 52.7169 17.1512 52.0835 17.2009 51.2814C17.2009 51.281 17.201 51.2799 17.201 51.2791C17.2253 50.8967 17.3967 50.5391 17.6779 50.2839C17.6819 50.2804 17.6858 50.2768 17.6898 50.273C17.9732 50.0213 18.5719 49.909 18.9429 49.9688L18.9429 49.9689ZM12.4932 50.5963C12.8037 50.5736 13.1069 50.6777 13.3386 50.8797C13.5691 51.0818 13.7137 51.3676 13.7365 51.6798C13.7365 51.6806 13.7367 51.6815 13.7368 51.6823C13.7824 52.3262 13.3028 52.8857 12.6644 52.9322C12.6635 52.9323 12.6625 52.9324 12.6615 52.9324C12.0233 52.9778 11.4683 52.4935 11.4211 51.8495C11.421 51.8482 11.421 51.8474 11.4209 51.8462C11.399 51.5387 11.4987 51.2341 11.6982 51.0004C11.7011 50.997 11.7041 50.9933 11.7071 50.9902C11.9077 50.7602 12.19 50.6186 12.4932 50.5963L12.4932 50.5963ZM8.87696 51.2791C9.14094 51.2599 9.4019 51.3464 9.60235 51.5192C9.80265 51.6924 9.92624 51.9376 9.94555 52.2022C9.94559 52.2034 9.94561 52.2042 9.94581 52.2051C9.98434 52.7537 9.57173 53.23 9.02295 53.2703C9.02182 53.2703 9.02081 53.2704 9.01964 53.2708C8.47111 53.3095 7.99446 52.8968 7.95424 52.348C7.95419 52.3468 7.95411 52.3456 7.95399 52.3447C7.93554 52.082 8.02191 51.822 8.1942 51.6228C8.19684 51.6197 8.1996 51.6164 8.20232 51.6134C8.37499 51.4179 8.61692 51.2982 8.87695 51.279L8.87696 51.2791ZM50.0876 75.3852C50.6755 74.7882 51.4621 74.4997 52.2554 74.5169C53.0301 74.5335 53.8112 74.8427 54.4188 75.4411C55.6482 76.6521 55.7022 78.5904 54.5399 79.771C53.3768 80.9513 51.4379 80.9263 50.2085 79.7154C49.6249 79.1406 49.282 78.3691 49.2516 77.5673C49.2515 77.5582 49.2515 77.548 49.2511 77.5389C49.2285 76.7267 49.529 75.952 50.0876 75.3852L50.0876 75.3852ZM43.6917 83.7781C44.1561 83.2418 44.805 82.9518 45.4785 82.9212C46.1381 82.8917 46.9573 82.9525 47.4703 83.4578L47.4709 83.4582C48.5117 84.4839 48.6137 86.1773 47.6929 87.2415L47.6922 87.2419C46.7708 88.3062 45.1284 88.3934 44.0236 87.4371L44.023 87.4367C43.4987 86.9823 43.1668 86.3479 43.1001 85.6701C43.0992 85.6614 43.098 85.6534 43.0975 85.6451C43.0358 84.9598 43.2498 84.2884 43.6917 83.7779L43.6917 83.7781ZM38.3037 91.8898C38.6571 91.4175 39.1793 91.1341 39.7399 91.0666C40.2895 91.0001 40.9117 91.087 41.3774 91.4619L41.3786 91.4628C42.3261 92.2266 42.5394 93.587 41.834 94.5302L41.8332 94.5313C41.1273 95.474 39.7656 95.6474 38.7909 94.9184L38.79 94.9178C38.3268 94.5708 38.0148 94.0621 37.92 93.5007C37.9187 93.4935 37.9174 93.4864 37.9164 93.4792C37.8269 92.913 37.9657 92.3413 38.3037 91.8897V91.8898ZM34.0437 99.5922C34.3009 99.1842 34.7085 98.9151 35.1638 98.8208C35.6125 98.728 36.0951 98.8084 36.5077 99.0686L36.5093 99.0696C37.3512 99.602 37.6141 100.698 37.0965 101.518L37.0954 101.52C36.577 102.339 35.4744 102.573 34.6322 102.042L34.6306 102.041C34.2298 101.787 33.9423 101.39 33.8297 100.935C33.8287 100.93 33.8271 100.924 33.8255 100.917C33.7176 100.46 33.7962 99.984 34.0437 99.592L34.0437 99.5922ZM31.0259 106.662C31.2031 106.316 31.5108 106.067 31.8727 105.956C32.2307 105.846 32.6263 105.877 32.9746 106.056C32.9753 106.056 32.976 106.057 32.9764 106.057C33.6904 106.425 33.9769 107.291 33.6167 107.992C33.6162 107.993 33.6157 107.994 33.6155 107.995C33.2545 108.695 32.4833 109.019 31.7359 108.724C31.7354 108.724 31.7344 108.724 31.7336 108.723C31.3775 108.582 31.0904 108.309 30.9346 107.962C30.9325 107.957 30.93 107.952 30.928 107.948C30.7762 107.6 30.8544 106.996 31.0259 106.662L31.0259 106.662ZM29.6295 112.99C29.7038 112.688 29.8965 112.431 30.1603 112.273C30.4236 112.117 30.7402 112.067 31.0442 112.142C31.045 112.142 31.0458 112.142 31.0466 112.143C31.6731 112.298 32.057 112.927 31.904 113.549C31.9038 113.55 31.9035 113.551 31.9033 113.552C31.7493 114.173 31.1171 114.551 30.49 114.397C30.4888 114.396 30.4881 114.396 30.4869 114.396C30.1876 114.322 29.9287 114.133 29.7682 113.871C29.7658 113.867 29.7632 113.863 29.7612 113.859C29.6044 113.597 29.557 113.285 29.6295 112.99L29.6295 112.99ZM29.1614 116.64C29.2248 116.383 29.3876 116.162 29.6139 116.024C29.8405 115.887 30.1119 115.846 30.3695 115.909C30.3707 115.909 30.3714 115.91 30.3723 115.91C30.906 116.043 31.2315 116.582 31.1002 117.117C31.0999 117.118 31.0997 117.119 31.0997 117.12C30.9671 117.653 30.4272 117.979 29.8928 117.848C29.8917 117.848 29.8905 117.847 29.8897 117.847C29.6341 117.784 29.4135 117.621 29.2773 117.396C29.2751 117.392 29.2727 117.388 29.271 117.385C29.1385 117.16 29.0994 116.893 29.1614 116.64L29.1614 116.64ZM64.8224 84.8956C64.4363 84.152 64.405 83.3148 64.6665 82.5655C64.9218 81.834 65.4572 81.1866 66.214 80.7937C67.7457 79.9986 69.6058 80.5462 70.3695 82.0166C71.1325 83.4874 70.5097 85.3237 68.9781 86.1188C68.251 86.4961 67.4113 86.5839 66.6394 86.365C66.6307 86.3623 66.6212 86.359 66.6121 86.3567C65.8326 86.1274 65.1888 85.602 64.8223 84.8956L64.8224 84.8956ZM70.8281 93.572C70.4616 92.9647 70.3863 92.2579 70.5653 91.6079C70.741 90.9714 71.0519 90.2111 71.6911 89.8794L71.6917 89.8789C72.9889 89.2061 74.6309 89.6323 75.3585 90.8369L75.3586 90.8377C76.0861 92.0429 75.6616 93.6319 74.4106 94.387L74.41 94.3874C73.8159 94.7457 73.1099 94.8653 72.4447 94.7193C72.4364 94.7175 72.4284 94.7162 72.4205 94.714C71.7496 94.561 71.1772 94.1499 70.8283 93.5719L70.8281 93.572ZM76.8778 101.203C76.5379 100.721 76.4297 100.137 76.5387 99.5827C76.6453 99.0394 76.9202 98.4745 77.4207 98.1475L77.422 98.1466C78.4412 97.4815 79.8008 97.6991 80.4799 98.6614L80.4807 98.6625C81.1591 99.6252 80.9033 100.974 79.9088 101.675L79.9079 101.676C79.4348 102.009 78.8545 102.149 78.2913 102.066C78.2842 102.065 78.277 102.064 78.2698 102.062C77.7037 101.973 77.2029 101.664 76.8778 101.203H76.8778ZM82.8868 107.635C82.5783 107.264 82.4483 106.793 82.4994 106.331C82.5497 105.876 82.7752 105.441 83.1503 105.129L83.1517 105.128C83.9182 104.492 85.0416 104.581 85.6619 105.326L85.6631 105.328C86.2824 106.074 86.1638 107.195 85.3982 107.832L85.3968 107.833C85.0319 108.136 84.5654 108.287 84.0982 108.253C84.0925 108.252 84.0861 108.252 84.0797 108.252C83.6116 108.213 83.1831 107.991 82.8867 107.635L82.8868 107.635ZM88.6779 112.689C88.4042 112.414 88.2621 112.044 88.2684 111.666C88.2744 111.291 88.426 110.925 88.7039 110.649C88.7044 110.648 88.705 110.648 88.7052 110.647C89.2761 110.082 90.1882 110.077 90.744 110.636C90.7445 110.637 90.745 110.638 90.7458 110.638C91.3007 111.198 91.3704 112.032 90.8587 112.651C90.8585 112.652 90.8578 112.653 90.8573 112.653C90.6129 112.948 90.264 113.137 89.8865 113.178C89.8812 113.178 89.8759 113.179 89.8706 113.18C89.4935 113.217 88.9431 112.956 88.6781 112.689L88.6779 112.689ZM94.2646 115.973C94.0001 115.809 93.816 115.546 93.7473 115.247C93.6796 114.948 93.7307 114.631 93.8957 114.366C93.8961 114.365 93.8965 114.364 93.8969 114.363C94.2385 113.816 94.9553 113.645 95.4991 113.982C95.5 113.983 95.5008 113.983 95.5017 113.984C96.0446 114.322 96.209 115.04 95.8686 115.589C95.8679 115.59 95.8675 115.591 95.8668 115.592C95.7037 115.854 95.4441 116.041 95.1453 116.113C95.1408 116.114 95.1363 116.116 95.1321 116.116C94.8346 116.184 94.523 116.133 94.2646 115.973L94.2646 115.973ZM97.5916 117.546C97.3668 117.406 97.2065 117.183 97.1459 116.925C97.0856 116.668 97.1296 116.397 97.2697 116.171C97.2703 116.17 97.2708 116.169 97.2711 116.169C97.5624 115.702 98.1762 115.559 98.6439 115.849C98.6448 115.85 98.6456 115.851 98.6468 115.851C99.1134 116.142 99.2564 116.756 98.9664 117.224C98.9657 117.225 98.965 117.226 98.9646 117.226C98.8251 117.45 98.6024 117.609 98.346 117.669C98.3422 117.67 98.3377 117.671 98.3339 117.672C98.0793 117.729 97.8132 117.683 97.5916 117.546L97.5916 117.546ZM78.4207 73.8209C77.5942 73.9583 76.7882 73.7294 76.1565 73.2491C75.5396 72.7803 75.0894 72.071 74.9496 71.2298C74.6667 69.5274 75.7623 67.9276 77.3967 67.6556C79.0313 67.3844 80.5852 68.5442 80.8681 70.2466C81.0023 71.0546 80.8263 71.8804 80.3796 72.5469C80.3743 72.5541 80.3683 72.5624 80.3634 72.57C79.9045 73.2405 79.2058 73.6904 78.4207 73.8207L78.4207 73.8209ZM88.5283 70.7902C87.8374 70.9511 87.142 70.8042 86.5791 70.4333C86.0281 70.0695 85.401 69.5388 85.2831 68.8284L85.2828 68.8277C85.0437 67.3861 85.9565 65.9561 87.327 65.6364L87.3278 65.6365C88.6988 65.317 90.0788 66.2119 90.4105 67.6349L90.4107 67.6356C90.5679 68.3114 90.4634 69.0198 90.119 69.6073C90.1145 69.6149 90.1111 69.6217 90.1065 69.6289C89.7537 70.2196 89.1859 70.637 88.5283 70.7903V70.7902ZM97.6553 67.3947C97.0917 67.5691 96.5027 67.4914 96.0095 67.2165C95.5257 66.9473 95.0734 66.5112 94.917 65.9342L94.9166 65.9327C94.599 64.7579 95.2261 63.532 96.3512 63.1835L96.3525 63.1831C97.4776 62.8354 98.6812 63.4955 99.0412 64.6581L99.0416 64.6592C99.2124 65.2121 99.1658 65.8071 98.9125 66.317C98.9093 66.3234 98.9061 66.3302 98.9027 66.3362C98.6424 66.8469 98.194 67.2278 97.6551 67.3945L97.6553 67.3947ZM105.629 63.6673C105.181 63.8462 104.693 63.8243 104.269 63.6329C103.852 63.4443 103.509 63.0957 103.328 62.6426L103.327 62.6408C102.959 61.7153 103.39 60.6742 104.291 60.3147L104.293 60.3141C105.194 59.9557 106.224 60.4149 106.593 61.3397L106.593 61.3415C106.769 61.7821 106.768 62.2723 106.592 62.7063C106.589 62.7116 106.587 62.7173 106.584 62.7233C106.403 63.1566 106.06 63.4956 105.629 63.6673L105.629 63.6673ZM112.226 59.7216C111.88 59.897 111.484 59.9178 111.126 59.7949C110.772 59.6736 110.47 59.4159 110.293 59.0664C110.293 59.0657 110.293 59.065 110.292 59.0647C109.931 58.3471 110.208 57.4781 110.912 57.1223C110.913 57.1221 110.914 57.1218 110.914 57.1212C111.618 56.7665 112.433 56.9577 112.864 57.6359C112.864 57.6362 112.865 57.6372 112.865 57.6378C113.07 57.9614 113.142 58.3515 113.064 58.7232C113.063 58.7285 113.062 58.7338 113.061 58.7391C112.98 59.1092 112.561 59.552 112.226 59.7217V59.7216ZM117.075 55.423C116.837 55.6239 116.531 55.7179 116.225 55.6907C115.919 55.6627 115.634 55.5164 115.432 55.2772C115.432 55.2766 115.431 55.276 115.431 55.2754C115.015 54.7813 115.074 54.0467 115.564 53.6339C115.564 53.6332 115.565 53.6326 115.566 53.632C116.055 53.2201 116.789 53.2858 117.206 53.779C117.207 53.78 117.207 53.7806 117.208 53.7815C117.406 54.0175 117.505 54.3225 117.481 54.6288C117.48 54.6333 117.48 54.6382 117.48 54.6424C117.452 54.9464 117.307 55.2269 117.075 55.4232L117.075 55.423ZM119.599 52.745C119.397 52.9157 119.135 52.9991 118.871 52.9771C118.608 52.9548 118.363 52.829 118.192 52.6263C118.192 52.6254 118.191 52.6247 118.19 52.6242C117.837 52.203 117.891 51.5751 118.311 51.2199C118.312 51.2192 118.313 51.2186 118.313 51.2176C118.734 50.8638 119.362 50.9176 119.718 51.3379C119.718 51.3389 119.719 51.3398 119.72 51.3404C119.889 51.5421 119.972 51.8033 119.95 52.0656C119.949 52.0698 119.949 52.074 119.949 52.0781C119.924 52.3377 119.798 52.5768 119.599 52.7452V52.745ZM66.4721 77.6085C65.473 77.9331 64.4197 78.0578 63.3723 77.9754C62.325 77.8929 61.3041 77.605 60.3681 77.1281C59.432 76.6511 58.599 75.9945 57.9167 75.1956C57.2345 74.3967 56.7162 73.4713 56.3915 72.4722C55.7359 70.4543 55.9087 68.2586 56.8719 66.3681C57.8352 64.4776 59.51 63.0472 61.5279 62.3916C63.5457 61.7359 65.7414 61.9087 67.6319 62.872C69.5224 63.8352 70.9528 65.51 71.6084 67.5279C71.9331 68.527 72.0578 69.5804 71.9753 70.6277C71.8929 71.675 71.605 72.6959 71.128 73.6319C70.6511 74.568 69.9944 75.401 69.1956 76.0833C68.3967 76.7656 67.4713 77.2838 66.4721 77.6085V77.6085Z" fill="#D45500" fill-opacity="0.993967"/>
<path fill-rule="evenodd" clip-rule="evenodd" d="M71.9443 58.0352C72.011 57.854 72.0603 57.6637 72.0901 57.4658C72.2087 56.6789 71.9967 55.8754 71.5008 55.2318C71.4952 55.2246 71.4891 55.2163 71.4838 55.2091C70.988 54.5783 70.257 54.1557 69.4471 54.0336C67.7406 53.7766 66.1574 54.8961 65.9102 56.5346C65.8353 57.0321 65.8923 57.5202 66.0558 57.966C66.541 56.6462 67.9464 55.8076 69.4471 56.0336C70.257 56.1557 70.988 56.5783 71.4838 57.2091C71.4891 57.2163 71.4952 57.2246 71.5008 57.2318C71.6915 57.4793 71.8402 57.7504 71.9443 58.0352ZM72.1287 47.7066C72.2373 47.4618 72.3073 47.1962 72.3312 46.9164C72.3887 46.2437 72.1672 45.5747 71.7144 45.0565C71.7112 45.0526 71.7078 45.049 71.7044 45.0453C71.7022 45.0429 71.7 45.0405 71.6978 45.038C71.2453 44.5289 70.604 44.2107 69.9127 44.1513H69.9119C68.4561 44.027 67.1786 45.0629 67.0588 46.4655L67.0584 46.4663C67.0222 46.8909 67.0958 47.307 67.2562 47.6869C67.6877 46.7005 68.7422 46.0514 69.9119 46.1513H69.9127C70.604 46.2107 71.2453 46.5289 71.6978 47.038C71.7034 47.0444 71.7091 47.0501 71.7144 47.0565C71.887 47.254 72.026 47.4734 72.1287 47.7066ZM71.6654 38.1584C71.8255 37.8671 71.9173 37.5364 71.9223 37.1869C71.9302 36.6229 71.7065 36.0787 71.3013 35.6733C71.2964 35.6682 71.2911 35.6632 71.2858 35.6581C70.8791 35.2597 70.3277 35.0315 69.749 35.0231H69.7479C68.5309 35.0062 67.5312 35.9469 67.5142 37.1244V37.1258C67.5091 37.4968 67.602 37.8476 67.7697 38.1561C68.1447 37.4723 68.8926 37.0112 69.7479 37.0231H69.749C70.3277 37.0315 70.8791 37.2597 71.2858 37.6581C71.2879 37.6601 71.29 37.6621 71.2921 37.6641C71.2952 37.6672 71.2983 37.6703 71.3013 37.6733C71.4468 37.819 71.569 37.9825 71.6654 38.1584ZM70.5248 29.5645C70.7502 29.2464 70.8681 28.8575 70.8413 28.4516C70.8111 27.989 70.5949 27.5576 70.2389 27.2512C70.2354 27.2483 70.232 27.2455 70.2288 27.2427C70.2274 27.2415 70.2261 27.2403 70.2249 27.2391C69.8666 26.9374 69.4006 26.7853 68.9274 26.8157L68.9255 26.8159C67.9318 26.8811 67.1771 27.7181 67.2394 28.6859V28.6878C67.2611 29.0186 67.3754 29.3217 67.5562 29.575C67.8595 29.1474 68.3528 28.8534 68.9255 28.8159L68.9274 28.8157C69.4006 28.7853 69.8666 28.9374 70.2249 29.2391C70.2288 29.2429 70.2334 29.2466 70.238 29.2504L70.2389 29.2512C70.3477 29.3448 70.4435 29.4502 70.5248 29.5645ZM68.8571 22.027C69.0846 21.7245 69.187 21.3419 69.1273 20.9582C69.0695 20.5869 68.7777 20.0522 68.4508 19.8605C68.4462 19.8578 68.4413 19.8552 68.4368 19.8525C68.1072 19.6639 67.7141 19.6114 67.343 19.7064L67.3407 19.7071C66.5625 19.9076 66.129 20.623 66.2488 21.4021C66.2492 21.4029 66.2492 21.4038 66.2492 21.4046C66.2937 21.691 66.4218 21.944 66.6056 22.1435C66.7913 21.9386 67.0403 21.7845 67.3407 21.7071L67.343 21.7064C67.7141 21.6114 68.1072 21.6639 68.4368 21.8525C68.4413 21.8552 68.4462 21.8578 68.4508 21.8605C68.5592 21.9241 68.6638 22.0254 68.7573 22.146C68.7926 22.1082 68.8259 22.0685 68.8571 22.027ZM66.5293 15.9097C66.6498 15.6269 66.6551 15.3063 66.5376 15.0181C66.4227 14.7366 66.2008 14.5119 65.92 14.3921C65.9162 14.3903 65.9117 14.3886 65.9075 14.3869C65.6237 14.2694 65.3032 14.2687 65.0174 14.3845L65.0144 14.3857C64.9312 14.4197 64.8539 14.462 64.7832 14.5114C64.778 14.5257 64.7724 14.5398 64.7665 14.5539C64.6861 14.7446 64.5495 14.9043 64.3764 15.0128C64.2597 15.2866 64.2477 15.6039 64.3677 15.9L64.3689 15.9028C64.4687 16.1479 64.6436 16.34 64.8568 16.464C64.9066 16.4345 64.9592 16.4082 65.0144 16.3857L65.0174 16.3845C65.3032 16.2687 65.6237 16.2694 65.9075 16.3869C65.9117 16.3886 65.9162 16.3903 65.92 16.3921C65.9646 16.4111 66.0076 16.4328 66.049 16.4569C66.2635 16.3296 66.4312 16.1379 66.5293 15.9097ZM64.7665 12.5539C64.8689 12.3099 64.8704 12.035 64.7706 11.7898C64.672 11.5485 64.4834 11.3554 64.2442 11.2515C64.2415 11.2502 64.2384 11.2489 64.2354 11.2477L64.2328 11.2467C63.9902 11.1444 63.7162 11.1426 63.472 11.2413L63.469 11.2426C62.9595 11.4504 62.7142 12.0313 62.9206 12.541C62.9213 12.542 62.9217 12.5429 62.9221 12.544C63.13 13.0534 63.7105 13.2987 64.2203 13.0925C64.2211 13.092 64.2219 13.0918 64.223 13.0913C64.4687 12.9912 64.6637 12.7979 64.7665 12.5539ZM56.075 60.2261C55.8462 59.4662 55.3286 58.8072 54.5793 58.4326L54.5793 58.4327C53.8676 58.0767 53.0378 58.03 52.2725 58.3027L52.2456 58.3118C51.4925 58.5885 50.8647 59.1531 50.4983 59.8857C50.1008 60.6808 50.0607 61.5576 50.3179 62.3224C50.3666 62.1749 50.4267 62.029 50.4983 61.8857C50.8647 61.1531 51.4925 60.5885 52.2456 60.3118L52.2725 60.3027C53.0378 60.03 53.8676 60.0767 54.5793 60.4327L54.5793 60.4326C55.2976 60.7917 55.8028 61.412 56.045 62.1321C56.2558 61.4946 56.2565 60.8284 56.075 60.2261ZM45.9878 56.3779C45.7505 55.7468 45.2742 55.2192 44.6207 54.9433L44.6206 54.9434C43.9985 54.6807 43.2939 54.6846 42.6611 54.9551C42.6536 54.9581 42.6464 54.9619 42.6384 54.9653C42.0145 55.2383 41.5136 55.7499 41.2435 56.389L41.2433 56.3897C40.9527 57.0782 40.9652 57.8161 41.2203 58.446C41.2277 58.4272 41.2354 58.4085 41.2433 58.3897L41.2435 58.389C41.5136 57.7499 42.0145 57.2383 42.6384 56.9653C42.6464 56.9619 42.6536 56.9581 42.6611 56.9551C43.2939 56.6846 43.9985 56.6807 44.6206 56.9434L44.6207 56.9433C45.2742 57.2192 45.7505 57.7468 45.9878 58.3779C46.0067 58.4283 46.0254 58.4799 46.0435 58.5325C46.0605 58.5017 46.0769 58.4704 46.0927 58.4387L46.0929 58.438C46.4151 57.7939 46.2197 56.9961 45.9878 56.3779ZM36.4677 53.4372C36.2303 52.9249 35.7993 52.5159 35.2409 52.3257V52.3255C34.707 52.1437 34.1204 52.1883 33.6096 52.4484L33.5903 52.4586C33.0857 52.7222 32.6983 53.1761 32.5115 53.7239L32.5112 53.725C32.3085 54.3203 32.367 54.9395 32.6246 55.4514C32.8343 55.0264 33.1721 54.6771 33.5903 54.4586L33.6096 54.4484C34.1204 54.1883 34.707 54.1437 35.2409 54.3255V54.3257C35.7923 54.5134 36.2193 54.9146 36.4586 55.4178C36.511 55.3225 36.5575 55.2225 36.5972 55.1182L36.5977 55.1168C36.8104 54.558 36.7008 53.9393 36.4677 53.4372ZM27.6789 51.4813C27.4485 51.0774 27.0666 50.7728 26.5992 50.6544L26.5992 50.6545C26.1499 50.5403 25.6728 50.6126 25.2713 50.8565C25.266 50.8599 25.2606 50.8632 25.2555 50.8659C24.8579 51.1135 24.5692 51.5097 24.4519 51.9691L24.4515 51.971C24.3196 52.4904 24.4217 53.0131 24.6906 53.4225C24.8352 53.1988 25.0275 53.0079 25.2555 52.8659C25.2606 52.8632 25.266 52.8599 25.2713 52.8565C25.6728 52.6126 26.1499 52.5403 26.5992 52.6545L26.5992 52.6544C27.0287 52.7632 27.3859 53.0292 27.6198 53.3849C27.7255 53.2214 27.8072 53.0377 27.8581 52.8378L27.8586 52.836C27.9787 52.3631 27.9059 51.8793 27.6789 51.4813ZM19.8759 50.5562C19.6585 50.2463 19.3262 50.0307 18.9429 49.9689L18.9429 49.9688C18.5719 49.909 17.9732 50.0213 17.6898 50.273L17.6779 50.2839C17.3967 50.5391 17.2253 50.8967 17.201 51.2791L17.2009 51.2814C17.1741 51.7138 17.3205 52.0971 17.583 52.3785C17.6131 52.3456 17.6447 52.3141 17.6779 52.2839L17.6898 52.273C17.9732 52.0213 18.5719 51.909 18.9429 51.9688L18.9429 51.9689C19.2582 52.0197 19.5389 52.1746 19.7496 52.4004C19.9388 52.196 20.0725 51.9342 20.1211 51.6369L20.1214 51.635C20.1839 51.2484 20.0912 50.8626 19.8759 50.5562ZM13.3386 50.8797C13.1069 50.6777 12.8037 50.5736 12.4932 50.5963C12.19 50.6186 11.9077 50.7602 11.7071 50.9902C11.7061 50.9912 11.7052 50.9923 11.7042 50.9934C11.7022 50.9957 11.7002 50.9981 11.6982 51.0004C11.4987 51.2341 11.399 51.5387 11.4209 51.8462L11.4211 51.8495C11.4498 52.2409 11.6661 52.5734 11.9747 52.7638C12.1305 52.6681 12.3079 52.6099 12.4932 52.5963C12.7383 52.5784 12.9788 52.6394 13.1832 52.7653C13.542 52.5447 13.7688 52.1343 13.7368 51.6823L13.7365 51.6798C13.7137 51.3676 13.5691 51.0818 13.3386 50.8797ZM9.60235 51.5192C9.4019 51.3464 9.14094 51.2599 8.87696 51.2791L8.87695 51.279C8.61692 51.2982 8.37499 51.4179 8.20232 51.6134L8.1942 51.6228C8.02191 51.822 7.93554 52.082 7.95399 52.3447L7.95424 52.348C7.99446 52.8968 8.47111 53.3095 9.01964 53.2708C9.02081 53.2704 9.02182 53.2703 9.02295 53.2703C9.57173 53.23 9.98434 52.7537 9.94581 52.2051C9.94562 52.2043 9.9456 52.2035 9.94556 52.2024L9.94555 52.2022C9.92624 51.9376 9.80265 51.6924 9.60235 51.5192ZM52.2554 74.5169C51.4621 74.4996 50.6754 74.7882 50.0876 75.3852C49.529 75.952 49.2285 76.7267 49.2511 77.5389C49.2514 77.5467 49.2515 77.5554 49.2515 77.5635L49.2516 77.5673C49.2631 77.8724 49.32 78.1731 49.4181 78.4602C49.5589 78.0591 49.7855 77.6917 50.0876 77.3852C50.6754 76.7882 51.4621 76.4996 52.2554 76.5169C53.0301 76.5335 53.8112 76.8427 54.4188 77.4411C54.79 77.8068 55.0541 78.2388 55.2099 78.6963C55.5904 77.6109 55.3213 76.33 54.4188 75.4411C53.8112 74.8427 53.0301 74.5335 52.2554 74.5169ZM45.4785 82.9212C44.805 82.9518 44.1561 83.2418 43.6917 83.7781L43.6917 83.7779C43.2498 84.2884 43.0358 84.9598 43.0975 85.6451C43.098 85.6535 43.0992 85.6614 43.1001 85.6701C43.1256 85.9295 43.19 86.1826 43.2892 86.4217C43.3887 86.1892 43.5237 85.9719 43.6917 85.7779L43.6917 85.7781C44.1561 85.2418 44.805 84.9518 45.4785 84.9212C46.1381 84.8917 46.9573 84.9525 47.4703 85.4578L47.4709 85.4582C47.7748 85.7577 47.9986 86.1141 48.1403 86.4951C48.5287 85.4916 48.2918 84.2673 47.4709 83.4582L47.4703 83.4578C46.9573 82.9525 46.1381 82.8917 45.4785 82.9212ZM39.7399 91.0666C39.1793 91.1341 38.6571 91.4175 38.3037 91.8898V91.8897C37.9657 92.3413 37.8269 92.913 37.9164 93.4792C37.9168 93.4822 37.9173 93.4853 37.9178 93.4883C37.9185 93.4924 37.9192 93.4966 37.92 93.5007C37.9584 93.7282 38.0325 93.947 38.1378 94.1499C38.1863 94.0596 38.2416 93.9726 38.3037 93.8897V93.8898C38.6571 93.4175 39.1793 93.1341 39.7399 93.0666C40.2895 93.0001 40.9117 93.087 41.3774 93.4619L41.3786 93.4628C41.6522 93.6834 41.8645 93.9536 42.0112 94.2492C42.4919 93.3324 42.2356 92.1536 41.3786 91.4628L41.3774 91.4619C40.9117 91.087 40.2895 91.0001 39.7399 91.0666ZM35.1638 98.8208C34.7085 98.9151 34.3009 99.1842 34.0437 99.5922L34.0437 99.592C33.7962 99.984 33.7176 100.46 33.8255 100.917C33.8271 100.924 33.8287 100.93 33.8297 100.935C33.8817 101.145 33.971 101.343 34.0916 101.52C34.35 101.153 34.7358 100.909 35.1638 100.821C35.6125 100.728 36.0951 100.808 36.5077 101.069L36.5093 101.07C36.7302 101.209 36.9112 101.388 37.0487 101.59C37.0648 101.567 37.0803 101.544 37.0954 101.52L37.0965 101.518C37.6141 100.698 37.3512 99.602 36.5093 99.0696L36.5077 99.0686C36.0951 98.8084 35.6125 98.728 35.1638 98.8208ZM31.8727 105.956C31.5108 106.067 31.2031 106.316 31.0259 106.662L31.0259 106.662C30.8544 106.996 30.7762 107.6 30.928 107.948C30.93 107.952 30.9325 107.957 30.9346 107.962C31.0045 108.118 31.1007 108.258 31.2178 108.379C31.392 108.18 31.619 108.034 31.8727 107.956C32.2307 107.846 32.6263 107.877 32.9746 108.056L32.9764 108.057C33.1271 108.135 33.2588 108.235 33.3694 108.35C33.4642 108.246 33.5472 108.127 33.6155 107.995C33.6157 107.994 33.6162 107.993 33.6167 107.992C33.9769 107.291 33.6904 106.425 32.9764 106.057L32.9746 106.056C32.6263 105.877 32.2307 105.846 31.8727 105.956ZM30.1603 112.273C29.8965 112.431 29.7038 112.688 29.6295 112.99L29.6295 112.99C29.557 113.285 29.6044 113.597 29.7612 113.859C29.7632 113.863 29.7658 113.867 29.7682 113.871C29.8688 114.035 30.0079 114.17 30.1714 114.267C30.4326 114.115 30.7445 114.068 31.0442 114.142L31.0466 114.143C31.1605 114.171 31.2664 114.215 31.3625 114.272C31.6238 114.119 31.8251 113.867 31.9033 113.552L31.904 113.549C32.057 112.927 31.6731 112.298 31.0466 112.143L31.0442 112.142C30.7402 112.067 30.4236 112.117 30.1603 112.273ZM29.8094 115.933C29.9712 116.163 30.212 116.328 30.4869 116.396L30.49 116.397C30.6668 116.44 30.844 116.441 31.0107 116.407C31.1233 116.616 31.1615 116.867 31.1002 117.117C31.0999 117.118 31.0997 117.119 31.0997 117.12C30.9671 117.653 30.4272 117.979 29.8928 117.848L29.8897 117.847C29.6341 117.784 29.4135 117.621 29.2773 117.396C29.2752 117.392 29.2727 117.388 29.271 117.385C29.1385 117.16 29.0994 116.893 29.1614 116.64C29.2248 116.383 29.3876 116.162 29.6139 116.024C29.6761 115.987 29.7417 115.956 29.8094 115.933ZM64.6712 84.5521C64.9283 83.8261 65.4618 83.1842 66.214 82.7937C67.7457 81.9986 69.6058 82.5462 70.3694 84.0166C70.4279 84.1292 70.4782 84.244 70.5206 84.3604C70.7872 83.608 70.7577 82.765 70.3694 82.0166C69.6058 80.5462 67.7457 79.9986 66.214 80.7937C65.4572 81.1866 64.9218 81.834 64.6665 82.5655C64.4446 83.2013 64.4336 83.9006 64.6712 84.5521ZM70.6709 93.2655C70.8598 92.7185 71.1638 92.1531 71.6911 91.8794L71.6917 91.8789C72.9889 91.2061 74.6309 91.6323 75.3585 92.8369L75.3586 92.8377C75.4154 92.9318 75.4652 93.0282 75.5081 93.1264C75.8162 92.3971 75.7888 91.5503 75.3586 90.8377L75.3585 90.8369C74.6309 89.6323 72.9889 89.2061 71.6917 89.8789L71.6911 89.8794C71.0519 90.2111 70.741 90.9714 70.5653 91.6079C70.4157 92.1511 70.4437 92.7341 70.6709 93.2655ZM76.7354 100.97C76.886 100.646 77.1098 100.351 77.4207 100.147L77.422 100.147C78.4412 99.4815 79.8008 99.6991 80.4799 100.661L80.4807 100.663C80.529 100.731 80.5726 100.802 80.6115 100.874C80.9723 100.18 80.9503 99.3288 80.4807 98.6625L80.4799 98.6614C79.8008 97.6991 78.4412 97.4815 77.422 98.1466L77.4207 98.1475C76.9202 98.4745 76.6453 99.0394 76.5387 99.5827C76.4467 100.05 76.5094 100.539 76.7354 100.97ZM82.7982 107.518C82.8944 107.376 83.0122 107.244 83.1503 107.129L83.1517 107.128C83.9182 106.492 85.0416 106.581 85.6619 107.326L85.6631 107.328C85.6941 107.365 85.7232 107.404 85.7505 107.443C86.1825 106.801 86.17 105.939 85.6631 105.328L85.6619 105.326C85.0416 104.581 83.9182 104.492 83.1517 105.128L83.1503 105.129C82.7752 105.441 82.5497 105.876 82.4994 106.331C82.4535 106.746 82.5537 107.168 82.7982 107.518ZM88.6711 112.682C88.6818 112.671 88.6927 112.66 88.7039 112.649L88.7052 112.647C89.2761 112.082 90.1882 112.077 90.744 112.636C90.7445 112.637 90.745 112.638 90.7458 112.638C90.7681 112.661 90.7897 112.684 90.8104 112.707C90.8264 112.69 90.842 112.672 90.8573 112.653L90.8587 112.651C91.3704 112.032 91.3007 111.198 90.7458 110.638C90.745 110.638 90.7445 110.637 90.744 110.636C90.1882 110.077 89.2761 110.082 88.7052 110.647L88.7039 110.649C88.426 110.925 88.2744 111.291 88.2684 111.666C88.2622 112.041 88.4018 112.408 88.6711 112.682ZM93.7473 115.247C93.816 115.546 94.0001 115.809 94.2646 115.973C94.2697 115.976 94.2749 115.979 94.28 115.982C94.6388 115.762 95.1019 115.744 95.4834 115.973C95.6375 115.878 95.7694 115.748 95.8668 115.592L95.8686 115.589C96.209 115.04 96.0446 114.322 95.5017 113.984L95.4991 113.982C94.9554 113.645 94.2385 113.816 93.8969 114.363L93.8957 114.366C93.7307 114.632 93.6796 114.948 93.7473 115.247ZM97.1459 116.925C97.2065 117.183 97.3668 117.406 97.5916 117.546L97.5916 117.546C97.8132 117.683 98.0793 117.729 98.3339 117.672C98.3363 117.672 98.339 117.671 98.3416 117.67L98.346 117.669C98.6024 117.609 98.8251 117.45 98.9646 117.226L98.9664 117.224C99.2564 116.756 99.1134 116.142 98.6468 115.851C98.6456 115.851 98.6448 115.85 98.6439 115.849C98.1762 115.559 97.5624 115.702 97.2711 116.169C97.2708 116.169 97.2704 116.17 97.2698 116.171L97.2697 116.171C97.1296 116.397 97.0856 116.668 97.1459 116.925ZM80.754 71.7765C80.289 70.3366 78.8759 69.4102 77.3967 69.6556C76.2739 69.8425 75.4054 70.656 75.0634 71.6989C75.0147 71.5479 74.9764 71.3913 74.9496 71.2298C74.6667 69.5274 75.7623 67.9276 77.3967 67.6556C79.0313 67.3844 80.5852 68.5442 80.8681 70.2466C80.9542 70.7648 80.9127 71.2903 80.754 71.7765ZM90.292 69.2533C89.823 68.0564 88.5717 67.3467 87.3278 67.6365L87.327 67.6364C86.4565 67.8395 85.7706 68.4905 85.4473 69.308C85.3688 69.1583 85.3113 68.9985 85.2831 68.8284L85.2828 68.8277C85.0437 67.3861 85.9565 65.9561 87.327 65.6364L87.3278 65.6365C88.6988 65.317 90.0788 66.2119 90.4105 67.6349L90.4107 67.6356C90.5374 68.1805 90.4941 68.7465 90.292 69.2533ZM98.9087 66.3247C98.4411 65.3734 97.365 64.8702 96.3525 65.1831L96.3512 65.1835C95.768 65.3641 95.3186 65.7805 95.0652 66.3033C95.0028 66.1877 94.9524 66.0645 94.917 65.9342L94.9166 65.9327C94.599 64.7579 95.2261 63.532 96.3512 63.1835L96.3525 63.1831C97.4776 62.8354 98.6812 63.4955 99.0412 64.6581L99.0416 64.6592C99.2124 65.2121 99.1658 65.8071 98.9125 66.317L98.9107 66.3207C98.91 66.322 98.9094 66.3233 98.9087 66.3247ZM106.427 63.0183C105.971 62.3137 105.083 62.0001 104.293 62.3141L104.291 62.3147C103.954 62.4494 103.682 62.6797 103.494 62.9639C103.429 62.864 103.373 62.7566 103.328 62.6426L103.327 62.6408C102.959 61.7153 103.39 60.6742 104.291 60.3147L104.293 60.3141C105.194 59.9557 106.224 60.4149 106.593 61.3397L106.593 61.3415C106.769 61.7821 106.768 62.2723 106.592 62.7063C106.59 62.7089 106.589 62.7116 106.588 62.7144C106.587 62.7173 106.586 62.7203 106.584 62.7233C106.541 62.8274 106.488 62.9261 106.427 63.0183ZM112.666 59.3843C112.211 58.9155 111.522 58.8151 110.914 59.1212C110.914 59.1218 110.913 59.1221 110.912 59.1223C110.765 59.1965 110.637 59.2931 110.529 59.406C110.437 59.3061 110.357 59.1922 110.293 59.0664L110.292 59.0647C109.931 58.3471 110.208 57.4781 110.912 57.1223C110.913 57.1221 110.914 57.1218 110.914 57.1212C111.618 56.7665 112.433 56.9577 112.864 57.6359L112.865 57.6378C113.07 57.9614 113.142 58.3515 113.064 58.7232L113.061 58.7391C113.014 58.9521 112.856 59.1891 112.666 59.3843ZM116.92 55.5334C116.974 55.5012 117.026 55.4644 117.075 55.423V55.4232C117.307 55.2269 117.452 54.9464 117.48 54.6424C117.48 54.6395 117.48 54.6361 117.48 54.6328L117.481 54.6288C117.505 54.3225 117.406 54.0175 117.208 53.7815L117.206 53.779C116.789 53.2858 116.055 53.2201 115.566 53.632L115.564 53.6339C115.074 54.0467 115.015 54.7813 115.431 55.2754L115.432 55.2772C115.515 55.3754 115.612 55.458 115.719 55.5231C116.091 55.3014 116.555 55.3105 116.92 55.5334ZM118.871 52.9771C119.135 52.9991 119.397 52.9157 119.599 52.745V52.7452C119.798 52.5768 119.924 52.3377 119.949 52.0781C119.949 52.074 119.949 52.0698 119.95 52.0656C119.972 51.8033 119.889 51.5421 119.72 51.3404L119.718 51.3379C119.362 50.9176 118.734 50.8638 118.313 51.2176C118.313 51.2186 118.312 51.2192 118.311 51.2199C117.891 51.5751 117.837 52.203 118.19 52.6242C118.191 52.6247 118.192 52.6254 118.192 52.6263C118.363 52.829 118.608 52.9548 118.871 52.9771ZM71.9372 71C71.8744 70.5013 71.7645 70.0083 71.6084 69.5279C70.9528 67.51 69.5224 65.8352 67.6319 64.872C65.7414 63.9087 63.5457 63.7359 61.5279 64.3916C59.51 65.0472 57.8352 66.4776 56.8719 68.3681C56.448 69.2 56.1772 70.0911 56.0627 71.0001C55.8638 69.4213 56.1391 67.8063 56.8719 66.3681C57.8352 64.4776 59.51 63.0472 61.5279 62.3916C63.5457 61.7359 65.7414 61.9087 67.6319 62.872C69.5224 63.8352 70.9528 65.51 71.6084 67.5279C71.9331 68.527 72.0578 69.5804 71.9753 70.6277C71.9655 70.7522 71.9528 70.8764 71.9372 71Z" fill="black" fill-opacity="0.07"/>
<path fill-rule="evenodd" clip-rule="evenodd" d="M72.0787 57.5358C72.0827 57.5126 72.0865 57.4893 72.0901 57.4658C72.2087 56.6789 71.9967 55.8754 71.5008 55.2318C71.4952 55.2246 71.4891 55.2163 71.4838 55.2091C70.988 54.5783 70.257 54.1557 69.4471 54.0336C67.7406 53.7766 66.1574 54.8961 65.9102 56.5346C65.8624 56.8519 65.8683 57.1654 65.9213 57.4665C66.2014 55.8653 67.7643 54.7802 69.4471 55.0336C70.257 55.1557 70.988 55.5783 71.4838 56.2091L71.4862 56.2123C71.4909 56.2186 71.496 56.2256 71.5008 56.2318C71.8007 56.621 71.9968 57.0687 72.0787 57.5358ZM72.2889 47.2073C72.3085 47.1123 72.3228 47.0152 72.3312 46.9164C72.3887 46.2437 72.1672 45.5747 71.7144 45.0565C71.7112 45.0526 71.7078 45.049 71.7044 45.0453C71.7022 45.0429 71.7 45.0405 71.6978 45.038C71.2453 44.5289 70.604 44.2107 69.9127 44.1513H69.9119C68.4561 44.027 67.1786 45.0629 67.0588 46.4655L67.0584 46.4663C67.0377 46.709 67.0529 46.949 67.0997 47.181C67.3555 45.9257 68.5564 45.0355 69.9119 45.1513H69.9127C70.604 45.2107 71.2453 45.5289 71.6978 46.038C71.7 46.0405 71.7022 46.0429 71.7044 46.0453C71.7078 46.049 71.7112 46.0526 71.7144 46.0565C72.0063 46.3906 72.202 46.7873 72.2889 47.2073ZM71.8612 37.6588C71.899 37.5069 71.92 37.3489 71.9223 37.1869C71.9302 36.6229 71.7065 36.0787 71.3013 35.6733C71.2964 35.6682 71.2911 35.6632 71.2858 35.6581C70.8791 35.2597 70.3277 35.0315 69.749 35.0231H69.7479C68.5309 35.0062 67.5312 35.9469 67.5142 37.1244V37.1258C67.5117 37.3079 67.5328 37.4851 67.5748 37.6548C67.8097 36.7067 68.6979 36.0085 69.7479 36.0231H69.749C70.3277 36.0315 70.8791 36.2597 71.2858 36.6581C71.2911 36.6632 71.2964 36.6682 71.3013 36.6733C71.5777 36.9499 71.7696 37.2909 71.8612 37.6588ZM70.7707 29.0642C70.83 28.8697 70.8553 28.6629 70.8413 28.4516C70.8111 27.989 70.5949 27.5576 70.2389 27.2512C70.2354 27.2483 70.232 27.2455 70.2288 27.2427C70.2274 27.2415 70.2261 27.2403 70.2249 27.2391C69.8666 26.9374 69.4006 26.7853 68.9274 26.8157L68.9255 26.8159C67.9318 26.8811 67.1771 27.7181 67.2394 28.6859V28.6878C67.2482 28.8222 67.2723 28.9519 67.3099 29.0757C67.5191 28.3885 68.1494 27.8668 68.9255 27.8159L68.9274 27.8157C69.4006 27.7853 69.8666 27.9374 70.2249 28.2391C70.229 28.2431 70.2339 28.2471 70.2389 28.2512C70.493 28.4699 70.6759 28.7523 70.7707 29.0642ZM69.0508 21.6771C69.137 21.452 69.1658 21.2053 69.1273 20.9582C69.0695 20.5869 68.7777 20.0522 68.4508 19.8605C68.4462 19.8578 68.4413 19.8552 68.4368 19.8525C68.1072 19.6639 67.7141 19.6114 67.343 19.7064L67.3407 19.7071C66.5625 19.9076 66.129 20.623 66.2488 21.4021C66.2492 21.4029 66.2492 21.4038 66.2492 21.4046C66.2623 21.4891 66.2827 21.5708 66.3097 21.649C66.4627 21.197 66.8265 20.8396 67.3407 20.7071L67.343 20.7064C67.7141 20.6114 68.1072 20.6639 68.4368 20.8525C68.4388 20.8537 68.4408 20.8548 68.4428 20.8559C68.4455 20.8574 68.4482 20.8589 68.4508 20.8605C68.7012 21.0073 68.931 21.3554 69.0508 21.6771ZM66.5293 15.9097C66.6498 15.6269 66.6551 15.3063 66.5376 15.0181C66.4227 14.7366 66.2008 14.5119 65.92 14.3921C65.9162 14.3903 65.9117 14.3886 65.9075 14.3869C65.6237 14.2694 65.3032 14.2687 65.0174 14.3845L65.0144 14.3857C64.4165 14.6296 64.1274 15.3071 64.3677 15.9L64.3689 15.9028C64.3777 15.9245 64.3872 15.9458 64.3972 15.9667C64.5186 15.7127 64.7321 15.5009 65.0144 15.3857L65.0174 15.3845C65.3032 15.2687 65.6237 15.2694 65.9075 15.3869C65.9088 15.3874 65.91 15.3879 65.9113 15.3884C65.9143 15.3896 65.9173 15.3908 65.92 15.3921C66.1792 15.5027 66.3881 15.7026 66.5091 15.954C66.5161 15.9394 66.5228 15.9246 66.5293 15.9097ZM64.7665 12.5539C64.8689 12.3099 64.8704 12.035 64.7706 11.7898C64.672 11.5485 64.4834 11.3554 64.2442 11.2515C64.2415 11.2502 64.2384 11.2489 64.2354 11.2477L64.2328 11.2467C63.9902 11.1444 63.7162 11.1426 63.472 11.2413L63.469 11.2426C62.9595 11.4504 62.7142 12.0313 62.9206 12.541C62.9213 12.542 62.9217 12.5429 62.9221 12.544C62.9395 12.5867 62.9596 12.6277 62.9821 12.6666C63.089 12.4817 63.2559 12.3295 63.469 12.2426L63.472 12.2413C63.7162 12.1426 63.9902 12.1444 64.2328 12.2467L64.2354 12.2477C64.2384 12.2489 64.2415 12.2502 64.2442 12.2515C64.4412 12.3371 64.6039 12.4831 64.7103 12.6669C64.7313 12.6306 64.75 12.5929 64.7665 12.5539ZM56.075 60.2261C55.8462 59.4662 55.3286 58.8072 54.5793 58.4326L54.5793 58.4327C53.8676 58.0767 53.0378 58.03 52.2725 58.3027L52.2456 58.3118C51.4925 58.5885 50.8647 59.1531 50.4983 59.8857C50.1847 60.513 50.0935 61.1912 50.1953 61.8251C50.2461 61.5072 50.3459 61.1904 50.4983 60.8857C50.8647 60.1531 51.4925 59.5885 52.2456 59.3118L52.2725 59.3027C53.0378 59.03 53.8676 59.0767 54.5793 59.4327L54.5793 59.4326C55.3286 59.8072 55.8462 60.4662 56.075 61.2261C56.1146 61.3577 56.1456 61.4924 56.1676 61.6291C56.2438 61.1515 56.2091 60.6714 56.075 60.2261ZM45.9878 56.3779C45.7505 55.7468 45.2742 55.2192 44.6207 54.9433L44.6206 54.9434C43.9985 54.6807 43.2939 54.6846 42.6611 54.9551C42.6536 54.9581 42.6464 54.9619 42.6384 54.9653C42.0145 55.2383 41.5136 55.7499 41.2435 56.389L41.2433 56.3897C41.0263 56.9039 40.9783 57.4455 41.0742 57.9492C41.1097 57.7612 41.1657 57.5737 41.2433 57.3897L41.2435 57.389C41.5136 56.7499 42.0145 56.2383 42.6384 55.9653C42.6464 55.9619 42.6536 55.9581 42.6611 55.9551C43.2939 55.6846 43.9985 55.6807 44.6206 55.9434L44.6207 55.9433C45.2742 56.2192 45.7505 56.7468 45.9878 57.3779C46.0744 57.6088 46.1559 57.8647 46.2073 58.1284C46.3536 57.5507 46.1837 56.9002 45.9878 56.3779ZM36.4677 53.4372C36.2303 52.9249 35.7993 52.5159 35.2409 52.3257V52.3255C34.707 52.1437 34.1204 52.1883 33.6096 52.4484L33.5903 52.4586C33.0857 52.7222 32.6983 53.1761 32.5115 53.7239L32.5112 53.725C32.3705 54.1382 32.3557 54.5629 32.4459 54.9552C32.4634 54.8783 32.4851 54.8014 32.5112 54.725L32.5115 54.7239C32.6983 54.1761 33.0857 53.7222 33.5903 53.4586L33.6096 53.4484C34.1204 53.1883 34.707 53.1437 35.2409 53.3255V53.3257C35.7993 53.5159 36.2303 53.9249 36.4677 54.4372C36.5435 54.6006 36.6063 54.7764 36.6492 54.9584C36.7888 54.4431 36.679 53.8923 36.4677 53.4372ZM27.6789 51.4813C27.4485 51.0774 27.0666 50.7728 26.5992 50.6544L26.5992 50.6545C26.1499 50.5403 25.6728 50.6126 25.2713 50.8565C25.266 50.8599 25.2606 50.8632 25.2555 50.8659C24.8579 51.1135 24.5692 51.5097 24.4519 51.9691L24.4515 51.971C24.3686 52.2976 24.3782 52.6255 24.4636 52.9257C24.5876 52.4848 24.8705 52.1056 25.2555 51.8659C25.2606 51.8632 25.266 51.8599 25.2713 51.8565C25.6728 51.6126 26.1499 51.5403 26.5992 51.6545L26.5992 51.6544C27.0666 51.7728 27.4485 52.0774 27.6789 52.4813C27.7506 52.607 27.8069 52.7412 27.8466 52.881C27.8506 52.8667 27.8544 52.8523 27.8581 52.8378L27.8586 52.836C27.9787 52.3631 27.9059 51.8793 27.6789 51.4813ZM19.8759 50.5562C19.6585 50.2463 19.3262 50.0307 18.9429 49.9689L18.9429 49.9688C18.5719 49.909 17.9732 50.0213 17.6898 50.273L17.6779 50.2839C17.3967 50.5391 17.2253 50.8967 17.201 51.2791L17.2009 51.2814C17.1876 51.4958 17.2169 51.6981 17.2818 51.8819C17.362 51.6541 17.4973 51.4479 17.6779 51.2839L17.6898 51.273C17.9732 51.0213 18.5719 50.909 18.9429 50.9688L18.9429 50.9689C19.3262 51.0307 19.6585 51.2463 19.8759 51.5562C19.9502 51.6619 20.0099 51.7772 20.0537 51.8986C20.0835 51.8151 20.1063 51.7277 20.1211 51.6369L20.1214 51.635C20.1839 51.2484 20.0912 50.8626 19.8759 50.5562ZM13.3386 50.8797C13.1069 50.6777 12.8037 50.5736 12.4932 50.5963C12.19 50.6186 11.9077 50.7602 11.7071 50.9902C11.7061 50.9912 11.7052 50.9923 11.7042 50.9934C11.7022 50.9957 11.7002 50.9981 11.6982 51.0004C11.4987 51.2341 11.399 51.5387 11.4209 51.8462L11.4211 51.8495C11.4319 51.9974 11.4696 52.1369 11.5289 52.2635C11.573 52.1693 11.6297 52.0807 11.6982 52.0004C11.6991 51.9994 11.6999 51.9984 11.7008 51.9974C11.7029 51.9949 11.705 51.9924 11.7071 51.9902C11.9077 51.7602 12.19 51.6186 12.4932 51.5963C12.8037 51.5736 13.1069 51.6777 13.3386 51.8797C13.4615 51.9875 13.5601 52.1191 13.6287 52.2659C13.7114 52.0898 13.7515 51.8905 13.7368 51.6823L13.7365 51.6798C13.7137 51.3676 13.5691 51.0818 13.3386 50.8797ZM9.60235 51.5192C9.4019 51.3464 9.14094 51.2599 8.87696 51.2791L8.87695 51.279C8.61692 51.2982 8.37499 51.4179 8.20232 51.6134L8.1942 51.6228C8.02191 51.822 7.93554 52.082 7.95399 52.3447L7.95424 52.348C7.96566 52.5038 8.01224 52.6486 8.08566 52.7752C8.11676 52.7215 8.15302 52.6704 8.1942 52.6228L8.20232 52.6134C8.37499 52.4179 8.61692 52.2982 8.87695 52.279L8.87696 52.2791C9.14094 52.2599 9.4019 52.3464 9.60235 52.5192C9.68747 52.5928 9.75874 52.6794 9.81404 52.775C9.91079 52.6083 9.96033 52.4118 9.94581 52.2051C9.94562 52.2043 9.9456 52.2035 9.94556 52.2024L9.94555 52.2022C9.92624 51.9376 9.80265 51.6924 9.60235 51.5192ZM52.2554 74.5169C51.4621 74.4996 50.6754 74.7882 50.0876 75.3852C49.529 75.952 49.2285 76.7267 49.2511 77.5389C49.2514 77.5467 49.2515 77.5554 49.2515 77.5635L49.2516 77.5673C49.2565 77.6978 49.2697 77.8275 49.291 77.9557C49.3898 77.3624 49.6648 76.8142 50.0876 76.3852C50.6754 75.7882 51.4621 75.4996 52.2554 75.5169C53.0301 75.5335 53.8112 75.8427 54.4188 76.4411C54.9246 76.9393 55.2314 77.5606 55.3365 78.2017C55.4965 77.2391 55.1872 76.198 54.4188 75.4411C53.8112 74.8427 53.0301 74.5335 52.2554 74.5169ZM45.4785 82.9212C44.805 82.9518 44.1561 83.2418 43.6917 83.7781L43.6917 83.7779C43.2498 84.2884 43.0358 84.9598 43.0975 85.6451C43.098 85.6535 43.0992 85.6614 43.1001 85.6701C43.1082 85.7526 43.1203 85.8346 43.1361 85.9156C43.2199 85.4962 43.4092 85.1042 43.6917 84.7779L43.6917 84.7781C44.1561 84.2418 44.805 83.9518 45.4785 83.9212C46.1381 83.8917 46.9573 83.9525 47.4703 84.4578L47.4709 84.4582C47.9066 84.8876 48.1778 85.4341 48.2783 86.0024C48.4387 85.1129 48.1613 84.1387 47.4709 83.4582L47.4703 83.4578C46.9573 82.9525 46.1381 82.8917 45.4785 82.9212ZM39.7399 91.0666C39.1793 91.1341 38.6571 91.4175 38.3037 91.8898V91.8897C37.9657 92.3413 37.8269 92.913 37.9164 93.4792C37.9168 93.4822 37.9173 93.4853 37.9178 93.4883C37.9185 93.4924 37.9192 93.4966 37.92 93.5007C37.9281 93.5489 37.9379 93.5967 37.9492 93.644C38.0148 93.3729 38.1342 93.1162 38.3037 92.8897V92.8898C38.6571 92.4175 39.1793 92.1341 39.7399 92.0666C40.2895 92.0001 40.9117 92.087 41.3774 92.4619L41.3786 92.4628C41.8037 92.8055 42.081 93.2682 42.1939 93.7595C42.3866 92.9434 42.089 92.0355 41.3786 91.4628L41.3774 91.4619C40.9117 91.087 40.2895 91.0001 39.7399 91.0666ZM35.1638 98.8208C34.7085 98.9151 34.3009 99.1842 34.0437 99.5922L34.0437 99.592C33.7962 99.984 33.7176 100.46 33.8255 100.917C33.8271 100.924 33.8287 100.93 33.8297 100.935C33.8363 100.962 33.8435 100.988 33.8512 101.015C33.8956 100.867 33.96 100.725 34.0437 100.592L34.0437 100.592C34.3009 100.184 34.7085 99.9151 35.1638 99.8208C35.6125 99.728 36.0951 99.8084 36.5077 100.069L36.5093 100.07C36.9019 100.318 37.1685 100.689 37.2889 101.097C37.5125 100.354 37.2133 99.5148 36.5093 99.0696L36.5077 99.0686C36.0951 98.8084 35.6125 98.728 35.1638 98.8208ZM31.8727 105.956C31.5108 106.067 31.2031 106.316 31.0259 106.662L31.0259 106.662C30.8565 106.992 30.7781 107.585 30.9225 107.935C30.9506 107.833 30.9857 107.74 31.0259 107.662L31.0259 107.662C31.2031 107.316 31.5108 107.067 31.8727 106.956C32.2307 106.846 32.6263 106.877 32.9746 107.056L32.9764 107.057C33.3156 107.232 33.5584 107.519 33.6811 107.848C33.9361 107.176 33.642 106.4 32.9764 106.057L32.9746 106.056C32.6263 105.877 32.2307 105.846 31.8727 105.956ZM30.1603 112.273C29.8965 112.431 29.7038 112.688 29.6295 112.99L29.6295 112.99C29.5655 113.25 29.5949 113.524 29.7104 113.765C29.8086 113.561 29.965 113.39 30.1603 113.273C30.4236 113.117 30.7402 113.067 31.0442 113.142L31.0466 113.143C31.4009 113.231 31.6776 113.47 31.8235 113.774C31.857 113.704 31.8839 113.63 31.9033 113.552L31.904 113.549C32.057 112.927 31.6731 112.298 31.0466 112.143L31.0442 112.142C30.7402 112.067 30.4236 112.117 30.1603 112.273ZM29.6139 116.024C29.3876 116.162 29.2248 116.383 29.1614 116.64C29.1 116.891 29.1377 117.155 29.267 117.378C29.3504 117.234 29.4692 117.112 29.6139 117.024C29.8405 116.887 30.1119 116.846 30.3695 116.909L30.3698 116.909C30.3708 116.909 30.3715 116.91 30.3723 116.91C30.6458 116.978 30.8646 117.153 30.9953 117.379C31.041 117.3 31.0766 117.213 31.0997 117.12C31.0997 117.119 31.0999 117.118 31.1002 117.117C31.2315 116.582 30.906 116.043 30.3723 115.91C30.3714 115.91 30.3707 115.909 30.3695 115.909C30.1119 115.846 29.8405 115.887 29.6139 116.024ZM64.5393 84.0578C64.5678 83.8909 64.6104 83.7262 64.6665 83.5655C64.9218 82.834 65.4572 82.1866 66.214 81.7937C67.7457 80.9986 69.6058 81.5462 70.3694 83.0166C70.5095 83.2866 70.6029 83.5689 70.6525 83.8548C70.7571 83.2432 70.6727 82.601 70.3694 82.0166C69.6058 80.5462 67.7457 79.9986 66.214 80.7937C65.4572 81.1866 64.9218 81.834 64.6665 82.5655C64.4999 83.0429 64.4521 83.556 64.5393 84.0578ZM70.5223 92.7889C70.5344 92.7282 70.5488 92.6678 70.5653 92.6079C70.741 91.9714 71.0519 91.2111 71.6911 90.8794L71.6917 90.8789C72.9889 90.2061 74.6309 90.6323 75.3585 91.8369L75.3586 91.8377C75.5083 92.0857 75.6092 92.3499 75.6642 92.6197C75.7835 92.0233 75.6921 91.3902 75.3586 90.8377L75.3585 90.8369C74.6309 89.6323 72.9889 89.2061 71.6917 89.8789L71.6911 89.8794C71.0519 90.2111 70.741 90.9714 70.5653 91.6079C70.4594 91.9925 70.4425 92.3969 70.5223 92.7889ZM76.557 100.497C76.6749 99.9805 76.9466 99.4573 77.4207 99.1475L77.422 99.1466C78.4412 98.4815 79.8008 98.6991 80.4799 99.6614L80.4807 99.6625C80.6349 99.8813 80.7408 100.12 80.8008 100.366C80.9376 99.7927 80.8407 99.1733 80.4807 98.6625L80.4799 98.6614C79.8008 97.6991 78.4412 97.4815 77.422 98.1466L77.4207 98.1475C76.9202 98.4745 76.6453 99.0394 76.5387 99.5827C76.4791 99.8855 76.4844 100.197 76.557 100.497ZM82.5605 107.025C82.6599 106.684 82.8604 106.37 83.1503 106.129L83.1517 106.128C83.9182 105.492 85.0416 105.581 85.6619 106.326L85.6631 106.328C85.8158 106.512 85.9237 106.719 85.988 106.936C86.1464 106.392 86.0452 105.788 85.6631 105.328L85.6619 105.326C85.0416 104.581 83.9182 104.492 83.1517 105.128L83.1503 105.129C82.7752 105.441 82.5497 105.876 82.4994 106.331C82.4735 106.565 82.494 106.801 82.5605 107.025ZM88.3574 112.188C88.4303 111.99 88.547 111.805 88.7039 111.649L88.7052 111.647C89.2761 111.082 90.1882 111.077 90.744 111.636C90.7445 111.637 90.745 111.638 90.7458 111.638C90.9147 111.809 91.0386 112.004 91.1149 112.212C91.3154 111.675 91.1773 111.074 90.7458 110.638C90.745 110.638 90.7445 110.637 90.744 110.636C90.1882 110.077 89.2761 110.082 88.7052 110.647L88.7039 110.649C88.426 110.925 88.2744 111.291 88.2684 111.666C88.2654 111.845 88.2957 112.022 88.3574 112.188ZM93.8303 115.486C93.8496 115.445 93.8714 115.405 93.8957 115.366L93.8969 115.363C94.2385 114.816 94.9554 114.645 95.4991 114.982L95.5017 114.984C95.6963 115.105 95.8424 115.275 95.9339 115.469C96.1835 114.94 96.0058 114.298 95.5017 113.984L95.4991 113.982C94.9554 113.645 94.2385 113.816 93.8969 114.363L93.8957 114.366C93.7307 114.632 93.6796 114.948 93.7473 115.247C93.7663 115.33 93.7942 115.41 93.8303 115.486ZM97.2539 117.197C97.259 117.189 97.2642 117.18 97.2697 117.171L97.2698 117.171C97.2704 117.17 97.2708 117.169 97.2711 117.169C97.5624 116.702 98.1762 116.559 98.6439 116.849L98.6444 116.85C98.6452 116.85 98.6459 116.851 98.6468 116.851C98.7903 116.94 98.9031 117.06 98.9822 117.197C99.2509 116.733 99.1047 116.137 98.6468 115.851C98.6456 115.851 98.6448 115.85 98.6439 115.849C98.1762 115.559 97.5624 115.702 97.2711 116.169C97.2708 116.169 97.2704 116.17 97.2698 116.171L97.2697 116.171C97.1296 116.397 97.0856 116.668 97.1459 116.925C97.1685 117.022 97.2051 117.113 97.2539 117.197ZM80.8733 71.2786C80.8716 71.2679 80.8699 71.2572 80.8681 71.2466C80.5852 69.5442 79.0313 68.3844 77.3967 68.6556C76.1013 68.8712 75.1443 69.921 74.944 71.1948C74.6817 69.5056 75.7735 67.9257 77.3967 67.6556C79.0313 67.3844 80.5852 68.5442 80.8681 70.2466C80.9255 70.592 80.9262 70.9406 80.8733 71.2786ZM90.4359 68.7563C90.4284 68.716 90.42 68.6758 90.4107 68.6356L90.4105 68.6349C90.0788 67.2119 88.6988 66.317 87.3278 66.6365L87.327 66.6364C86.2666 66.8838 85.4802 67.7959 85.2894 68.8638C85.2872 68.852 85.285 68.8402 85.2831 68.8284L85.2828 68.8277C85.0437 67.3861 85.9565 65.9561 87.327 65.6364L87.3278 65.6365C88.6988 65.317 90.0788 66.2119 90.4105 67.6349L90.4107 67.6356C90.4973 68.0079 90.5045 68.3899 90.4359 68.7563ZM99.0868 65.8282C99.0739 65.7715 99.0589 65.7151 99.0416 65.6592L99.0412 65.6581C98.6812 64.4955 97.4776 63.8354 96.3525 64.1831L96.3512 64.1835C95.5874 64.4201 95.0532 65.061 94.8881 65.8158C94.6411 64.6776 95.2634 63.5204 96.3512 63.1835L96.3525 63.1831C97.4776 62.8354 98.6812 63.4955 99.0412 64.6581L99.0416 64.6592C99.1601 65.0428 99.174 65.4466 99.0868 65.8282ZM106.655 62.5229C106.638 62.4617 106.617 62.4011 106.593 62.3415L106.593 62.3397C106.224 61.4149 105.194 60.9557 104.293 61.3141L104.291 61.3147C103.773 61.5214 103.41 61.9537 103.265 62.4597C103.017 61.5832 103.449 60.6509 104.291 60.3147L104.293 60.3141C105.194 59.9557 106.224 60.4149 106.593 61.3397L106.593 61.3415C106.744 61.721 106.765 62.1374 106.655 62.5229ZM113.002 58.9125C112.966 58.8172 112.92 58.7251 112.865 58.6378L112.864 58.6359C112.433 57.9577 111.618 57.7665 110.914 58.1212C110.914 58.1218 110.913 58.1221 110.912 58.1223C110.579 58.2907 110.342 58.5739 110.222 58.9017C109.975 58.2202 110.261 57.4516 110.912 57.1223C110.913 57.1221 110.914 57.1218 110.914 57.1212C111.618 56.7665 112.433 56.9577 112.864 57.6359L112.865 57.6378C113.07 57.9614 113.142 58.3515 113.064 58.7232L113.061 58.7391C113.048 58.7956 113.028 58.8538 113.002 58.9125ZM117.372 55.0375C117.329 54.9462 117.274 54.86 117.208 54.7815L117.206 54.779C116.789 54.2858 116.055 54.2201 115.566 54.632L115.564 54.6339C115.434 54.7432 115.335 54.8752 115.266 55.0192C115.046 54.5521 115.154 53.98 115.564 53.6339L115.566 53.632C116.055 53.2201 116.789 53.2858 117.206 53.779L117.208 53.7815C117.406 54.0175 117.505 54.3225 117.481 54.6288L117.48 54.6328C117.48 54.6361 117.48 54.6395 117.48 54.6424C117.467 54.7809 117.43 54.9145 117.372 55.0375ZM119.819 52.4823C119.79 52.4325 119.757 52.385 119.72 52.3404L119.718 52.3379C119.362 51.9176 118.734 51.8638 118.313 52.2176C118.313 52.2186 118.312 52.2192 118.311 52.2199C118.22 52.2964 118.147 52.3855 118.091 52.4824C117.852 52.0717 117.936 51.5371 118.311 51.2199C118.312 51.2192 118.313 51.2186 118.313 51.2176C118.734 50.8638 119.362 50.9176 119.718 51.3379L119.72 51.3404C119.889 51.5421 119.972 51.8033 119.95 52.0656C119.949 52.0698 119.949 52.074 119.949 52.0781C119.935 52.222 119.89 52.3596 119.819 52.4823ZM71.9844 70.5C71.9425 69.831 71.8165 69.1683 71.6084 68.5279C70.9528 66.51 69.5224 64.8352 67.6319 63.872C65.7414 62.9087 63.5457 62.7359 61.5279 63.3916C59.51 64.0472 57.8352 65.4776 56.8719 67.3681C56.3706 68.3521 56.0833 69.4189 56.0156 70.5002C55.9269 69.083 56.2163 67.6548 56.8719 66.3681C57.8352 64.4776 59.51 63.0472 61.5279 62.3916C63.5457 61.7359 65.7414 61.9087 67.6319 62.872C69.5224 63.8352 70.9528 65.51 71.6084 67.5279C71.9199 68.4864 72.0473 69.4949 71.9844 70.5Z" fill="black" fill-opacity="0.15"/>
<path d="M84.3787 51.4096C84.3254 51.3211 84.2569 51.1968 84.1727 51.0337C83.9864 50.6724 83.7427 50.1586 83.4478 49.5081C82.8591 48.2094 82.0801 46.3965 81.172 44.2379C79.7676 40.8997 78.0602 36.7486 76.2791 32.4184C75.7572 31.1496 75.229 29.8654 74.7003 28.5818C72.3683 22.9208 70.0258 17.2714 68.1739 13.0171C67.2485 10.8912 66.4419 9.10519 65.8185 7.83771C65.5078 7.20596 65.2361 6.68981 65.0138 6.3212C64.9037 6.13881 64.7954 5.97519 64.6919 5.84747C64.6405 5.78408 64.5784 5.71457 64.5066 5.65317C64.4464 5.60169 64.3192 5.50253 64.1371 5.46436C63.8865 5.41179 63.6874 5.50589 63.5825 5.57552C63.4785 5.64454 63.4046 5.72848 63.3578 5.78802C63.2622 5.90985 63.1792 6.06203 63.1074 6.21071C62.9591 6.51767 62.792 6.95256 62.6105 7.47903C62.2451 8.53934 61.7928 10.0568 61.285 11.8711C60.2684 15.5037 59.0166 20.3741 57.7733 25.2666C57.4969 26.3541 57.221 27.4428 56.9481 28.5194C55.9924 32.2901 55.0741 35.913 54.3062 38.8237C53.8125 40.6952 53.3828 42.2647 53.0467 43.3864C52.8782 43.9487 52.7362 44.3884 52.6236 44.6939C52.5846 44.7996 52.5514 44.8833 52.5238 44.947C52.4232 44.9703 52.2838 44.9971 52.1026 45.0267C51.7015 45.0923 51.1375 45.1653 50.4278 45.2447C49.0106 45.4033 47.0458 45.5839 44.7122 45.7806C41.1034 46.0846 36.6278 46.4257 31.9593 46.7815C30.5913 46.8858 29.2067 46.9913 27.8225 47.0975C21.718 47.566 15.6212 48.0481 11.0028 48.4947C8.69502 48.7179 6.74716 48.9331 5.34908 49.1343C4.65223 49.2346 4.0774 49.3334 3.6581 49.431C3.45064 49.4793 3.26157 49.5317 3.10811 49.5907C3.03194 49.62 2.94663 49.6576 2.86605 49.7069C2.7985 49.7483 2.66487 49.8387 2.57232 50C2.44487 50.2221 2.47283 50.4405 2.50663 50.5618C2.54014 50.6821 2.59714 50.7783 2.63932 50.8411C2.72565 50.9697 2.8447 51.0957 2.96392 51.21C3.21005 51.4458 3.572 51.7392 4.01664 52.0744C4.91212 52.7496 6.21551 53.6487 7.78414 54.6923C10.9248 56.7817 15.17 59.4773 19.4388 62.1715C20.3875 62.7703 21.3375 63.3691 22.2769 63.9612C25.5678 66.0355 28.7299 68.0285 31.261 69.6584C32.8883 70.7063 34.2483 71.5999 35.2112 72.2662C35.6939 72.6001 36.0682 72.8711 36.3239 73.0726C36.4125 73.1423 36.4817 73.1998 36.5338 73.2457C36.5249 73.3486 36.5073 73.4895 36.4795 73.6709C36.4179 74.0727 36.313 74.6316 36.1692 75.3311C35.8822 76.7279 35.4468 78.6524 34.9127 80.9326C34.0867 84.4584 33.0282 88.8199 31.924 93.3695C31.6004 94.7031 31.2728 96.0529 30.946 97.4026C29.5051 103.353 28.0796 109.3 27.0772 113.831C26.5763 116.095 26.179 118.014 25.9384 119.405C25.8184 120.099 25.7348 120.676 25.6981 121.105C25.6799 121.318 25.6713 121.514 25.68 121.678C25.6843 121.759 25.6937 121.852 25.7157 121.944C25.7341 122.021 25.7788 122.176 25.9036 122.314C26.0755 122.504 26.2919 122.545 26.4177 122.55C26.5424 122.555 26.6515 122.531 26.7243 122.51C26.8733 122.468 27.0299 122.393 27.1754 122.315C27.4758 122.154 27.8666 121.901 28.3228 121.581C29.2417 120.938 30.4996 119.977 31.9768 118.807C34.9345 116.466 38.81 113.261 42.6915 110.034C43.5547 109.316 44.4182 108.598 45.2721 107.887C48.2613 105.398 51.1333 103.007 53.4651 101.104C54.9646 99.8802 56.2347 98.8629 57.166 98.153C57.6328 97.7972 58.0061 97.5249 58.2768 97.344C58.3705 97.2813 58.4466 97.2332 58.5063 97.1979C58.6014 97.2382 58.7299 97.2985 58.8939 97.381C59.257 97.5637 59.7561 97.8361 60.377 98.189C61.6167 98.8937 63.3125 99.9025 65.316 101.115C68.4139 102.99 72.2347 105.344 76.2203 107.8C77.3887 108.52 78.5714 109.249 79.7541 109.977C84.9681 113.186 90.1839 116.38 94.1828 118.733C96.181 119.909 97.8833 120.88 99.1327 121.539C99.7554 121.867 100.279 122.125 100.675 122.293C100.871 122.376 101.055 122.444 101.214 122.487C101.293 122.508 101.384 122.528 101.478 122.535C101.557 122.541 101.718 122.547 101.888 122.471C102.122 122.366 102.227 122.173 102.271 122.055C102.315 121.938 102.325 121.826 102.328 121.751C102.334 121.596 102.312 121.424 102.282 121.262C102.222 120.926 102.101 120.476 101.939 119.943C101.611 118.871 101.085 117.377 100.43 115.611C99.1169 112.075 97.2669 107.399 95.397 102.71C94.9813 101.668 94.5647 100.625 94.1527 99.5934C92.7095 95.981 91.3229 92.5102 90.2333 89.704C89.5327 87.8997 88.9577 86.3773 88.5703 85.2723C88.3761 84.7184 88.2325 84.2792 88.1441 83.9658C88.1135 83.8574 88.0912 83.7702 88.076 83.7024C88.1438 83.6244 88.2408 83.5208 88.3699 83.3904C88.6559 83.1015 89.0693 82.711 89.5968 82.2296C90.6501 81.2683 92.1335 79.9673 93.9058 78.4365C96.6461 76.0698 100.066 73.1639 103.633 70.1327C104.679 69.2436 105.738 68.3438 106.796 67.4436C111.459 63.4764 116.108 59.5028 119.582 56.4268C121.318 54.8898 122.767 53.5708 123.78 52.5862C124.285 52.0955 124.692 51.6776 124.974 51.3522C125.113 51.1912 125.235 51.0377 125.325 50.8997C125.369 50.8313 125.416 50.7507 125.452 50.6634C125.483 50.5903 125.538 50.4386 125.518 50.2537C125.49 49.9991 125.339 49.8388 125.24 49.7606C125.143 49.683 125.04 49.6386 124.969 49.6126C124.824 49.5593 124.653 49.5273 124.49 49.505C124.152 49.4589 123.687 49.4343 123.13 49.4244C122.008 49.4045 120.425 49.4432 118.543 49.521C114.774 49.6767 109.755 49.9911 104.718 50.3206C103.598 50.3938 102.478 50.4678 101.37 50.5409C97.4881 50.7972 93.7587 51.0434 90.7531 51.2125C88.8206 51.3213 87.1951 51.3977 86.0244 51.4247C85.4376 51.4382 84.9756 51.439 84.6502 51.4263C84.5376 51.4219 84.4478 51.4161 84.3787 51.4096Z" stroke="#AA4400" stroke-opacity="0.999242" stroke-width="1.3"/>
<g opacity="0.8" filter="url(#filter0_f_1:19)">
<path d="M122.531 19.022C118.571 18.794 112.62 20.3418 105.15 23.5427C97.6801 26.7435 88.4013 31.5471 79 37.5C79.6497 39.0891 80.379 40.4847 81 42C88.4119 37.6305 95.3728 34.3658 100.615 32.665C105.858 30.9642 109.536 30.8015 111.307 32.192C114.079 34.3842 111.965 40.2588 105.428 48.5236C98.8916 56.7884 88.4688 66.7665 76.4522 76.263C64.4355 85.7595 51.8094 93.9965 41.3513 99.1621C30.8932 104.328 23.4597 105.999 20.6859 103.808C18.9443 102.424 19.1264 99.5637 21.2157 95.4889C23.305 91.414 30.5883 80.2738 36 74.5C35.1238 73.9129 35.6552 73.7482 34.5 73C34.0954 72.7379 32.9322 71.7781 32.5 71.5C23.0337 80.7284 11.7176 95.4031 7.67673 102.154C3.63582 108.905 2.90821 113.623 5.58092 115.745C7.41145 117.192 10.7868 117.39 15.5144 116.328C20.2419 115.265 26.2289 112.963 33.1337 109.553C40.0384 106.142 47.7256 101.691 55.7564 96.4516C63.7871 91.2126 72.0041 85.2889 79.9382 79.0188C87.8721 72.7488 95.3677 66.2552 101.997 59.9088C108.626 53.5624 114.26 47.4874 118.575 42.0307C122.891 36.574 125.804 31.8424 127.149 28.1062C128.493 24.3699 128.243 21.7022 126.412 20.2552C125.499 19.5329 124.199 19.1198 122.531 19.022Z" fill="#214478" fill-opacity="0.993967"/>
</g>
<path opacity="0.8" d="M110.617 29.7998L110.616 29.7987C109.594 28.9959 108.088 28.688 106.241 28.7697C104.383 28.8519 102.106 29.3315 99.4612 30.1894C94.2896 31.8671 87.4863 35.0438 80.2393 39.2798C79.9945 38.7124 79.7384 38.1592 79.4831 37.6079L79.4645 37.5676C79.1796 36.9523 78.8958 36.3381 78.6239 35.6973C87.8819 29.8618 96.9972 25.1516 104.347 22.0022C111.805 18.8066 117.665 17.3004 121.501 17.5211C123.11 17.6155 124.297 18.0109 125.102 18.6474L125.102 18.6475C126.661 19.8797 127.008 22.2426 125.678 25.9369C124.361 29.5978 121.486 34.2794 117.183 39.7205C112.885 45.1545 107.269 51.2124 100.651 57.5476C94.0344 63.8821 86.5509 70.3653 78.6282 76.6265C70.7053 82.8877 62.5006 88.8025 54.4832 94.0328C46.4653 99.2635 38.7955 103.705 31.9123 107.104C25.0249 110.506 19.0778 112.79 14.4047 113.84C12.0682 114.365 10.092 114.572 8.49056 114.478C6.88677 114.384 5.69835 113.99 4.89175 113.353C3.74729 112.445 3.26816 110.948 3.60538 108.762C3.94401 106.566 5.09915 103.763 7.10575 100.411C11.0787 93.7733 22.1891 80.3247 31.5832 71.1179C31.6736 71.1604 31.7532 71.192 31.8265 71.221L31.8293 71.2221C31.9664 71.2763 32.0701 71.3173 32.2282 71.4197C32.7913 71.7844 33.4357 72.254 34.0578 72.7128C34.143 72.7756 34.2279 72.8384 34.3122 72.9006C34.6385 73.1417 34.9551 73.3757 35.2412 73.5806C32.592 76.4366 29.3425 80.2251 26.4713 83.8195C23.4664 87.5812 20.8417 91.1721 19.7708 93.2607C18.7119 95.326 18.1105 97.1304 18.0152 98.6256C17.919 100.136 18.3412 101.378 19.3748 102.199L19.376 102.2C20.1789 102.834 21.2771 103.158 22.5862 103.232C23.8984 103.306 25.4636 103.132 27.2467 102.732C30.8132 101.93 35.326 100.202 40.5727 97.6104C51.0702 92.4253 63.726 84.1672 75.7622 74.6553C87.7968 65.1445 98.2515 55.1394 104.82 46.8338C108.101 42.6853 110.303 39.1007 111.329 36.2499C112.342 33.4351 112.277 31.1118 110.617 29.7998Z" fill="url(#paint3_linear_1:19)" fill-opacity="0.993967" stroke="url(#paint4_linear_1:19)"/>
<path opacity="0.4" d="M28 126C38.4934 126 47 124.209 47 122C47 119.791 38.4934 118 28 118C17.5066 118 9 119.791 9 122C9 124.209 17.5066 126 28 126Z" fill="url(#paint5_radial_1:19)"/>
<path opacity="0.4" d="M99 126C109.493 126 118 124.209 118 122C118 119.791 109.493 118 99 118C88.5066 118 80 119.791 80 122C80 124.209 88.5066 126 99 126Z" fill="url(#paint6_radial_1:19)"/>
<path opacity="0.2" d="M119 121.001C118.997 122.592 113.201 124.118 102.887 125.243C92.5726 126.368 78.5849 127 64 127C49.4151 127 35.4274 126.368 25.1133 125.243C14.7991 124.118 9.00311 122.592 9 121.001C8.99846 120.213 10.4199 119.433 13.1833 118.705C15.9466 117.977 19.9976 117.315 25.105 116.758C30.2124 116.201 36.276 115.758 42.9497 115.457C49.6234 115.155 56.7763 115 64 115C71.2237 115 78.3766 115.155 85.0503 115.457C91.724 115.758 97.7876 116.201 102.895 116.758C108.002 117.315 112.053 117.977 114.817 118.705C117.58 119.433 119.002 120.213 119 121.001V121.001Z" fill="url(#paint7_radial_1:19)"/>
</g>
<defs>
<filter id="filter0_f_1:19" x="1.30374" y="16.3037" width="129.393" height="103.393" filterUnits="userSpaceOnUse" color-interpolation-filters="sRGB">
<feFlood flood-opacity="0" result="BackgroundImageFix"/>
<feBlend mode="normal" in="SourceGraphic" in2="BackgroundImageFix" result="shape"/>
<feGaussianBlur stdDeviation="1.34813" result="effect1_foregroundBlur_1:19"/>
</filter>
<linearGradient id="paint0_linear_1:19" x1="32" y1="8" x2="96" y2="120" gradientUnits="userSpaceOnUse">
<stop stop-color="#FFA154"/>
<stop offset="1" stop-color="#F37329"/>
</linearGradient>
<linearGradient id="paint1_linear_1:19" x1="64" y1="6.0993" x2="64" y2="121.901" gradientUnits="userSpaceOnUse">
<stop stop-color="white" stop-opacity="0.54"/>
<stop offset="1" stop-color="white" stop-opacity="0.21"/>
</linearGradient>
<linearGradient id="paint2_linear_1:19" x1="33.9523" y1="18.8575" x2="95.0121" y2="117.595" gradientUnits="userSpaceOnUse">
<stop stop-color="#FF7F2A"/>
<stop offset="1" stop-color="#D45500"/>
</linearGradient>
<linearGradient id="paint3_linear_1:19" x1="125" y1="17" x2="4.99999" y2="114" gradientUnits="userSpaceOnUse">
<stop stop-color="#64BAFF"/>
<stop offset="0.536458" stop-color="#3689E6"/>
<stop offset="1" stop-color="#0D52BF"/>
</linearGradient>
<linearGradient id="paint4_linear_1:19" x1="65" y1="17" x2="65" y2="115" gradientUnits="userSpaceOnUse">
<stop stop-color="white" stop-opacity="0.38"/>
<stop offset="1" stop-color="white" stop-opacity="0.12"/>
</linearGradient>
<radialGradient id="paint5_radial_1:19" cx="0" cy="0" r="1" gradientUnits="userSpaceOnUse" gradientTransform="translate(28 122) scale(19 4)">
<stop/>
<stop offset="1" stop-opacity="0"/>
</radialGradient>
<radialGradient id="paint6_radial_1:19" cx="0" cy="0" r="1" gradientUnits="userSpaceOnUse" gradientTransform="translate(99 122) scale(19 4)">
<stop/>
<stop offset="1" stop-opacity="0"/>
</radialGradient>
<radialGradient id="paint7_radial_1:19" cx="0" cy="0" r="1" gradientUnits="userSpaceOnUse" gradientTransform="translate(64 121.001) scale(55 6)">
<stop/>
<stop offset="1" stop-opacity="0"/>
</radialGradient>
<clipPath id="clip0_1:19">
<rect width="128" height="128" fill="white"/>
</clipPath>
</defs>
</svg>
