<svg xmlns="http://www.w3.org/2000/svg">
  <symbol id="sprite-cube" viewBox="0 0 512 512">
    <!--! Font Awesome Pro 6.1.1 by @fontawesome - https://fontawesome.com License - https://fontawesome.com/license (Commercial License) Copyright 2022 Fonticons, Inc. -->
     >
     <path d="M234.5 5.709C248.4 .7377 263.6 .7377 277.5 5.709L469.5 74.28C494.1 83.38 512 107.5 512 134.6V377.4C512 404.5 494.1 428.6 469.5 437.7L277.5 506.3C263.6 511.3 248.4 511.3 234.5 506.3L42.47 437.7C17 428.6 0 404.5 0 377.4V134.6C0 107.5 17 83.38 42.47 74.28L234.5 5.709zM256 65.98L82.34 128L256 190L429.7 128L256 65.98zM288 434.6L448 377.4V189.4L288 246.6V434.6z"/>
  </symbol>
  <symbol id="sprite-rocket" viewBox="0 0 512 512">
    <!--! Font Awesome Pro 6.1.1 by @fontawesome - https://fontawesome.com License - https://fontawesome.com/license (Commercial License) Copyright 2022 Fonticons, Inc. -->
    <path d="M156.6 384.9L125.7 353.1C117.2 345.5 114.2 333.1 117.1 321.8C120.1 312.9 124.1 301.3 129.8 288H24C15.38 288 7.414 283.4 3.146 275.9C-1.123 268.4-1.042 259.2 3.357 251.8L55.83 163.3C68.79 141.4 92.33 127.1 117.8 127.1H200C202.4 124 204.8 120.3 207.2 116.7C289.1-4.07 411.1-8.142 483.9 5.275C495.6 7.414 504.6 16.43 506.7 28.06C520.1 100.9 516.1 222.9 395.3 304.8C391.8 307.2 387.1 309.6 384 311.1V394.2C384 419.7 370.6 443.2 348.7 456.2L260.2 508.6C252.8 513 243.6 513.1 236.1 508.9C228.6 504.6 224 496.6 224 488V380.8C209.9 385.6 197.6 389.7 188.3 392.7C177.1 396.3 164.9 393.2 156.6 384.9V384.9zM384 167.1C406.1 167.1 424 150.1 424 127.1C424 105.9 406.1 87.1 384 87.1C361.9 87.1 344 105.9 344 127.1C344 150.1 361.9 167.1 384 167.1z"/></symbol>
    <symbol id="sprite-gears" viewBox="0 0 640 512"><!--! Font Awesome Pro 6.1.1 by @fontawesome - https://fontawesome.com License - https://fontawesome.com/license (Commercial License) Copyright 2022 Fonticons, Inc. -->
      <path d="M286.3 155.1C287.4 161.9 288 168.9 288 175.1C288 183.1 287.4 190.1 286.3 196.9L308.5 216.7C315.5 223 318.4 232.1 314.7 241.7C312.4 246.1 309.9 252.2 307.1 257.2L304 262.6C300.1 267.6 297.7 272.4 294.2 277.1C288.5 284.7 278.5 287.2 269.5 284.2L241.2 274.9C230.5 283.8 218.3 290.9 205 295.9L198.1 324.9C197 334.2 189.8 341.6 180.4 342.8C173.7 343.6 166.9 344 160 344C153.1 344 146.3 343.6 139.6 342.8C130.2 341.6 122.1 334.2 121 324.9L114.1 295.9C101.7 290.9 89.5 283.8 78.75 274.9L50.53 284.2C41.54 287.2 31.52 284.7 25.82 277.1C22.28 272.4 18.98 267.5 15.94 262.5L12.92 257.2C10.13 252.2 7.592 247 5.324 241.7C1.62 232.1 4.458 223 11.52 216.7L33.7 196.9C32.58 190.1 31.1 183.1 31.1 175.1C31.1 168.9 32.58 161.9 33.7 155.1L11.52 135.3C4.458 128.1 1.62 119 5.324 110.3C7.592 104.1 10.13 99.79 12.91 94.76L15.95 89.51C18.98 84.46 22.28 79.58 25.82 74.89C31.52 67.34 41.54 64.83 50.53 67.79L78.75 77.09C89.5 68.25 101.7 61.13 114.1 56.15L121 27.08C122.1 17.8 130.2 10.37 139.6 9.231C146.3 8.418 153.1 8 160 8C166.9 8 173.7 8.418 180.4 9.23C189.8 10.37 197 17.8 198.1 27.08L205 56.15C218.3 61.13 230.5 68.25 241.2 77.09L269.5 67.79C278.5 64.83 288.5 67.34 294.2 74.89C297.7 79.56 300.1 84.42 304 89.44L307.1 94.83C309.9 99.84 312.4 105 314.7 110.3C318.4 119 315.5 128.1 308.5 135.3L286.3 155.1zM160 127.1C133.5 127.1 112 149.5 112 175.1C112 202.5 133.5 223.1 160 223.1C186.5 223.1 208 202.5 208 175.1C208 149.5 186.5 127.1 160 127.1zM484.9 478.3C478.1 479.4 471.1 480 464 480C456.9 480 449.9 479.4 443.1 478.3L423.3 500.5C416.1 507.5 407 510.4 398.3 506.7C393 504.4 387.8 501.9 382.8 499.1L377.4 496C372.4 492.1 367.6 489.7 362.9 486.2C355.3 480.5 352.8 470.5 355.8 461.5L365.1 433.2C356.2 422.5 349.1 410.3 344.1 397L315.1 390.1C305.8 389 298.4 381.8 297.2 372.4C296.4 365.7 296 358.9 296 352C296 345.1 296.4 338.3 297.2 331.6C298.4 322.2 305.8 314.1 315.1 313L344.1 306.1C349.1 293.7 356.2 281.5 365.1 270.8L355.8 242.5C352.8 233.5 355.3 223.5 362.9 217.8C367.6 214.3 372.5 210.1 377.5 207.9L382.8 204.9C387.8 202.1 392.1 199.6 398.3 197.3C407 193.6 416.1 196.5 423.3 203.5L443.1 225.7C449.9 224.6 456.9 224 464 224C471.1 224 478.1 224.6 484.9 225.7L504.7 203.5C511 196.5 520.1 193.6 529.7 197.3C535 199.6 540.2 202.1 545.2 204.9L550.5 207.9C555.5 210.1 560.4 214.3 565.1 217.8C572.7 223.5 575.2 233.5 572.2 242.5L562.9 270.8C571.8 281.5 578.9 293.7 583.9 306.1L612.9 313C622.2 314.1 629.6 322.2 630.8 331.6C631.6 338.3 632 345.1 632 352C632 358.9 631.6 365.7 630.8 372.4C629.6 381.8 622.2 389 612.9 390.1L583.9 397C578.9 410.3 571.8 422.5 562.9 433.2L572.2 461.5C575.2 470.5 572.7 480.5 565.1 486.2C560.4 489.7 555.6 492.1 550.6 496L545.2 499.1C540.2 501.9 534.1 504.4 529.7 506.7C520.1 510.4 511 507.5 504.7 500.5L484.9 478.3zM512 352C512 325.5 490.5 304 464 304C437.5 304 416 325.5 416 352C416 378.5 437.5 400 464 400C490.5 400 512 378.5 512 352z"/></symbol>
      <symbol id="sprite-discourse" viewBox="0 0 448 512"><!--! Font Awesome Pro 6.1.1 by @fontawesome - https://fontawesome.com License - https://fontawesome.com/license (Commercial License) Copyright 2022 Fonticons, Inc. --><path d="M225.9 32C103.3 32 0 130.5 0 252.1 0 256 .1 480 .1 480l225.8-.2c122.7 0 222.1-102.3 222.1-223.9C448 134.3 348.6 32 225.9 32zM224 384c-19.4 0-37.9-4.3-54.4-12.1L88.5 392l22.9-75c-9.8-18.1-15.4-38.9-15.4-61 0-70.7 57.3-128 128-128s128 57.3 128 128-57.3 128-128 128z"/></symbol>
      <symbol id="sprite-matrix" viewBox="0 0 16 16">
        <path fill-rule="evenodd" clip-rule="evenodd" d="M2 0C0.895431 0 0 0.895431 0 2V14C0 15.1046 0.895431 16 2 16H14C15.1046 16 16 15.1046 16 14V2C16 0.895431 15.1046 0 14 0H2ZM2.3165 13.7246V2.2755L3.14037 2.27588V2.00025H2V14.0002H3.14037V13.7246H2.3165ZM5.83812 6.4845V5.90438L4.73038 5.9055V10.1884H5.9045V7.70587C5.9045 7.49475 5.93375 7.32488 5.99412 7.19625C6.04451 7.08138 6.11998 6.97926 6.215 6.89738C6.299 6.82875 6.38863 6.78188 6.47862 6.75675C6.56862 6.73125 6.6425 6.71963 6.69913 6.71963C6.88663 6.71963 7.0295 6.75262 7.12512 6.81525C7.22016 6.87397 7.29298 6.96262 7.33212 7.06725C7.37657 7.17651 7.40109 7.29285 7.4045 7.41075C7.412 7.53375 7.41388 7.65863 7.41388 7.78575V10.1861H8.588V7.8015C8.58979 7.66996 8.60019 7.53868 8.61912 7.4085C8.63533 7.28637 8.67452 7.16842 8.73462 7.06088C8.7925 6.95878 8.875 6.87279 8.97463 6.81075C9.07625 6.7485 9.209 6.71738 9.37512 6.71738C9.53938 6.71738 9.67212 6.74438 9.76775 6.80137C9.86146 6.85178 9.93779 6.92928 9.98675 7.02375C10.0387 7.12652 10.0692 7.2388 10.0764 7.35375C10.0887 7.4889 10.0947 7.62454 10.0944 7.76025V10.1858H11.2677V7.32263C11.2677 7.04513 11.2288 6.8085 11.1526 6.6135C11.0743 6.41813 10.967 6.25988 10.8301 6.1365C10.6918 6.01538 10.5275 5.92725 10.3321 5.87288C10.1276 5.81501 9.91581 5.78673 9.70325 5.78888C9.40475 5.78888 9.14675 5.86125 8.92962 6.00375C8.71325 6.14625 8.53925 6.31238 8.41213 6.49988C8.29513 6.23625 8.12712 6.05063 7.9025 5.94525C7.67937 5.84175 7.4315 5.78888 7.16188 5.78888C6.881 5.78888 6.629 5.84925 6.41188 5.97038C6.18869 6.09653 5.99761 6.27247 5.8535 6.4845H5.83812ZM13.6835 2.27513V13.7242L12.8596 13.7239V13.9995H14V1.9995H12.8596V2.27513H13.6835Z"/>
      </symbol>
      <symbol id="sprite-mastodon" viewBox="0 0 448 512"><!--! Font Awesome Pro 6.1.1 by @fontawesome - https://fontawesome.com License - https://fontawesome.com/license (Commercial License) Copyright 2022 Fonticons, Inc. --><path d="M433 179.11c0-97.2-63.71-125.7-63.71-125.7-62.52-28.7-228.56-28.4-290.48 0 0 0-63.72 28.5-63.72 125.7 0 115.7-6.6 259.4 105.63 289.1 40.51 10.7 75.32 13 103.33 11.4 50.81-2.8 79.32-18.1 79.32-18.1l-1.7-36.9s-36.31 11.4-77.12 10.1c-40.41-1.4-83-4.4-89.63-54a102.54 102.54 0 0 1-.9-13.9c85.63 20.9 158.65 9.1 178.75 6.7 56.12-6.7 105-41.3 111.23-72.9 9.8-49.8 9-121.5 9-121.5zm-75.12 125.2h-46.63v-114.2c0-49.7-64-51.6-64 6.9v62.5h-46.33V197c0-58.5-64-56.6-64-6.9v114.2H90.19c0-122.1-5.2-147.9 18.41-175 25.9-28.9 79.82-30.8 103.83 6.1l11.6 19.5 11.6-19.5c24.11-37.1 78.12-34.8 103.83-6.1 23.71 27.3 18.4 53 18.4 175z"/></symbol>
      <symbol id="sprite-discord" viewBox="0 0 16 16">
        <path d="M13.545 2.907a13.227 13.227 0 0 0-3.257-1.011.05.05 0 0 0-.052.025c-.141.25-.297.577-.406.833a12.19 12.19 0 0 0-3.658 0 8.258 8.258 0 0 0-.412-.833.051.051 0 0 0-.052-.025c-1.125.194-2.22.534-3.257 1.011a.041.041 0 0 0-.021.018C.356 6.024-.213 9.047.066 12.032c.001.014.01.028.021.037a13.276 13.276 0 0 0 3.995 2.02.05.05 0 0 0 .056-.019c.308-.42.582-.863.818-1.329a.05.05 0 0 0-.01-.059.051.051 0 0 0-.018-.011 8.875 8.875 0 0 1-1.248-.595.05.05 0 0 1-.02-.066.051.051 0 0 1 .015-.019c.084-.063.168-.129.248-.195a.05.05 0 0 1 .051-.007c2.619 1.196 5.454 1.196 8.041 0a.052.052 0 0 1 .053.007c.08.066.164.132.248.195a.051.051 0 0 1-.004.085 8.254 8.254 0 0 1-1.249.594.05.05 0 0 0-.03.03.052.052 0 0 0 .003.041c.24.465.515.909.817 1.329a.05.05 0 0 0 .056.019 13.235 13.235 0 0 0 4.001-2.02.049.049 0 0 0 .021-.037c.334-3.451-.559-6.449-2.366-9.106a.034.034 0 0 0-.02-.019Zm-8.198 7.307c-.789 0-1.438-.724-1.438-1.612 0-.889.637-1.613 1.438-1.613.807 0 1.45.73 1.438 1.613 0 .888-.637 1.612-1.438 1.612Zm5.316 0c-.788 0-1.438-.724-1.438-1.612 0-.889.637-1.613 1.438-1.613.807 0 1.451.73 1.438 1.613 0 .888-.631 1.612-1.438 1.612Z"/>
      </symbol>
      <symbol id="sprite-telegram" viewBox="0 0 16 16">
        <path d="M16 8A8 8 0 1 1 0 8a8 8 0 0 1 16 0zM8.287 5.906c-.778.324-2.334.994-4.666 2.01-.378.15-.577.298-.595.442-.03.243.275.339.69.47l.175.055c.408.133.958.288 1.243.294.26.006.549-.1.868-.32 2.179-1.471 3.304-2.214 3.374-2.23.05-.012.12-.026.166.016.047.041.042.12.037.141-.03.129-1.227 1.241-1.846 1.817-.193.18-.33.307-.358.336a8.154 8.154 0 0 1-.188.186c-.38.366-.664.64.015 1.088.327.216.589.393.85.571.284.194.568.387.936.629.093.06.183.125.27.187.331.236.63.448.997.414.214-.02.435-.22.547-.82.265-1.417.786-4.486.906-5.751a1.426 1.426 0 0 0-.013-.315.337.337 0 0 0-.114-.217.526.526 0 0 0-.31-.093c-.3.005-.763.166-2.984 1.09z"/>
      </symbol>
      <symbol id="sprite-twitter" viewBox="0 0 16 16">
        <path d="M5.026 15c6.038 0 9.341-5.003 9.341-9.334 0-.14 0-.282-.006-.422A6.685 6.685 0 0 0 16 3.542a6.658 6.658 0 0 1-1.889.518 3.301 3.301 0 0 0 1.447-1.817 6.533 6.533 0 0 1-2.087.793A3.286 3.286 0 0 0 7.875 6.03a9.325 9.325 0 0 1-6.767-3.429 3.289 3.289 0 0 0 1.018 4.382A3.323 3.323 0 0 1 .64 6.575v.045a3.288 3.288 0 0 0 2.632 3.218 3.203 3.203 0 0 1-.865.115 3.23 3.23 0 0 1-.614-.057 3.283 3.283 0 0 0 3.067 2.277A6.588 6.588 0 0 1 .78 13.58a6.32 6.32 0 0 1-.78-.045A9.344 9.344 0 0 0 5.026 15z"/>
      </symbol>
      <symbol id="sprite-reddit" viewBox="0 0 16 16">
        <path d="M6.167 8a.831.831 0 0 0-.83.83c0 .459.372.84.83.831a.831.831 0 0 0 0-1.661zm1.843 3.647c.315 0 1.403-.038 1.976-.611a.232.232 0 0 0 0-.306.213.213 0 0 0-.306 0c-.353.363-1.126.487-1.67.487-.545 0-1.308-.124-1.671-.487a.213.213 0 0 0-.306 0 .213.213 0 0 0 0 .306c.564.563 1.652.61 1.977.61zm.992-2.807c0 .458.373.83.831.83.458 0 .83-.381.83-.83a.831.831 0 0 0-1.66 0z"/>
        <path d="M16 8A8 8 0 1 1 0 8a8 8 0 0 1 16 0zm-3.828-1.165c-.315 0-.602.124-.812.325-.801-.573-1.9-.945-3.121-.993l.534-2.501 1.738.372a.83.83 0 1 0 .83-.869.83.83 0 0 0-.744.468l-1.938-.41a.203.203 0 0 0-.153.028.186.186 0 0 0-.086.134l-.592 2.788c-1.24.038-2.358.41-3.17.992-.21-.2-.496-.324-.81-.324a1.163 1.163 0 0 0-.478 2.224c-.02.115-.029.23-.029.353 0 1.795 2.091 3.256 4.669 3.256 2.577 0 4.668-1.451 4.668-3.256 0-.114-.01-.238-.029-.353.401-.181.688-.592.688-1.069 0-.65-.525-1.165-1.165-1.165z"/>
      </symbol>
      <symbol id="sprite-copy" viewBox="0 0 512 512"><!--! Font Awesome Pro 6.1.1 by @fontawesome - https://fontawesome.com License - https://fontawesome.com/license (Commercial License) Copyright 2022 Fonticons, Inc. --><path d="M502.6 70.63l-61.25-61.25C435.4 3.371 427.2 0 418.7 0H255.1c-35.35 0-64 28.66-64 64l.0195 256C192 355.4 220.7 384 256 384h192c35.2 0 64-28.8 64-64V93.25C512 84.77 508.6 76.63 502.6 70.63zM464 320c0 8.836-7.164 16-16 16H255.1c-8.838 0-16-7.164-16-16L239.1 64.13c0-8.836 7.164-16 16-16h128L384 96c0 17.67 14.33 32 32 32h47.1V320zM272 448c0 8.836-7.164 16-16 16H63.1c-8.838 0-16-7.164-16-16L47.98 192.1c0-8.836 7.164-16 16-16H160V128H63.99c-35.35 0-64 28.65-64 64l.0098 256C.002 483.3 28.66 512 64 512h192c35.2 0 64-28.8 64-64v-32h-47.1L272 448z"/></symbol>
      <symbol id="sprite-open-source" viewBox="0 0 640 512"><!--! Font Awesome Pro 6.1.1 by @fontawesome - https://fontawesome.com License - https://fontawesome.com/license (Commercial License) Copyright 2022 Fonticons, Inc. --><path d="M184 88C184 118.9 158.9 144 128 144C97.07 144 72 118.9 72 88C72 57.07 97.07 32 128 32C158.9 32 184 57.07 184 88zM208.4 196.3C178.7 222.7 160 261.2 160 304C160 338.3 171.1 369.8 192 394.5V416C192 433.7 177.7 448 160 448H96C78.33 448 64 433.7 64 416V389.2C26.16 371.2 0 332.7 0 288C0 226.1 50.14 176 112 176H144C167.1 176 190.2 183.5 208.4 196.3V196.3zM64 245.7C54.04 256.9 48 271.8 48 288C48 304.2 54.04 319.1 64 330.3V245.7zM448 416V394.5C468 369.8 480 338.3 480 304C480 261.2 461.3 222.7 431.6 196.3C449.8 183.5 472 176 496 176H528C589.9 176 640 226.1 640 288C640 332.7 613.8 371.2 576 389.2V416C576 433.7 561.7 448 544 448H480C462.3 448 448 433.7 448 416zM576 330.3C585.1 319.1 592 304.2 592 288C592 271.8 585.1 256.9 576 245.7V330.3zM568 88C568 118.9 542.9 144 512 144C481.1 144 456 118.9 456 88C456 57.07 481.1 32 512 32C542.9 32 568 57.07 568 88zM256 96C256 60.65 284.7 32 320 32C355.3 32 384 60.65 384 96C384 131.3 355.3 160 320 160C284.7 160 256 131.3 256 96zM448 304C448 348.7 421.8 387.2 384 405.2V448C384 465.7 369.7 480 352 480H288C270.3 480 256 465.7 256 448V405.2C218.2 387.2 192 348.7 192 304C192 242.1 242.1 192 304 192H336C397.9 192 448 242.1 448 304zM256 346.3V261.7C246 272.9 240 287.8 240 304C240 320.2 246 335.1 256 346.3zM384 261.7V346.3C393.1 335 400 320.2 400 304C400 287.8 393.1 272.9 384 261.7z"/></symbol>
      <symbol id="sprite-gui-app" viewBox="0 0 512 512"><!--! Font Awesome Pro 6.1.2 by @fontawesome - https://fontawesome.com License - https://fontawesome.com/license (Commercial License) Copyright 2022 Fonticons, Inc. --><path d="M448 32C483.3 32 512 60.65 512 96V416C512 451.3 483.3 480 448 480H64C28.65 480 0 451.3 0 416V96C0 60.65 28.65 32 64 32H448zM96 96C78.33 96 64 110.3 64 128C64 145.7 78.33 160 96 160H416C433.7 160 448 145.7 448 128C448 110.3 433.7 96 416 96H96z"/></symbol>
      <symbol id="sprite-terminal" viewBox="0 0 576 512"><!--! Font Awesome Pro 6.1.2 by @fontawesome - https://fontawesome.com License - https://fontawesome.com/license (Commercial License) Copyright 2022 Fonticons, Inc. --><path d="M9.372 86.63C-3.124 74.13-3.124 53.87 9.372 41.37C21.87 28.88 42.13 28.88 54.63 41.37L246.6 233.4C259.1 245.9 259.1 266.1 246.6 278.6L54.63 470.6C42.13 483.1 21.87 483.1 9.372 470.6C-3.124 458.1-3.124 437.9 9.372 425.4L178.7 256L9.372 86.63zM544 416C561.7 416 576 430.3 576 448C576 465.7 561.7 480 544 480H256C238.3 480 224 465.7 224 448C224 430.3 238.3 416 256 416H544z"/></symbol>
      <symbol id="sprite-library" viewBox="0 0 384 512"><!--! Font Awesome Pro 6.1.2 by @fontawesome - https://fontawesome.com License - https://fontawesome.com/license (Commercial License) Copyright 2022 Fonticons, Inc. --><path d="M62.36 458.1C56.77 474.9 38.65 483.9 21.88 478.4C5.116 472.8-3.946 454.6 1.643 437.9L129.6 53.88C135.2 37.12 153.4 28.05 170.1 33.64C186.9 39.23 195.9 57.35 190.4 74.12L62.36 458.1zM261.3 32.44C278.7 35.34 290.5 51.83 287.6 69.26L223.6 453.3C220.7 470.7 204.2 482.5 186.7 479.6C169.3 476.7 157.5 460.2 160.4 442.7L224.4 58.74C227.3 41.31 243.8 29.53 261.3 32.44H261.3zM352 32C369.7 32 384 46.33 384 64V448C384 465.7 369.7 480 352 480C334.3 480 320 465.7 320 448V64C320 46.33 334.3 32 352 32V32z"/></symbol>
</svg>
