<?xml version="1.0" encoding="UTF-8"?>
<!-- Created with Inkscape (http://www.inkscape.org/) -->
<svg width="1024" height="1024" version="1.1" viewBox="0 0 270.93 270.93" xml:space="preserve" xmlns="http://www.w3.org/2000/svg"><g transform="matrix(.96269 0 0 .96269 37.08 116.69)">
	<rect x="-38.517" y="-121.22" width="281.43" height="281.43" fill="#ef6456" stroke-width=".273"/><g fill="#fff"><path d="m9 7v9.8h19v7.4h-19v14.8h-9v-39h28.1l-0.1 7z"/>
	<path d="m51.4 39h-10.1l8.4-12.9c-4.8-2.3-7.4-6.5-7.4-12.6 0-8.7 5.9-13.5 16.2-13.5h17.5v39h-9v-11h-9.3zm15.6-19v-13h-8.5c-4.9 0-7.7 2-7.7 6.4 0 4.5 2.8 6.6 7.7 6.6z"/>
	<path d="m92 39v-39h9v39z"/>
	<path d="m134.8 0c12.2 0 20.8 7.8 20.8 19.5 0 11.6-8.6 19.5-21.1 19.5h-16.5v-39zm-7.8 32h8c6.6 0 11.4-5.2 11.4-12.4 0-7.3-5.1-12.6-11.8-12.6h-7.6z"/>
	<path d="m173.5 31-3.1 8h-9.2l17.1-39h9.2l16.9 39h-9.5l-3.1-8zm9.2-22.3-6.3 15.3h12.5z"/>
</g></g></svg>
