<?xml version="1.0" encoding="UTF-8"?>
<svg height="128px" viewBox="0 0 128 128" width="128px" xmlns="http://www.w3.org/2000/svg" xmlns:xlink="http://www.w3.org/1999/xlink">
    <linearGradient id="a" gradientUnits="userSpaceOnUse" x1="24" x2="104" y1="68.000015" y2="68.000015">
        <stop offset="0" stop-color="#e5a50a"/>
        <stop offset="0.025" stop-color="#f5c211"/>
        <stop offset="0.05" stop-color="#e5a50a"/>
        <stop offset="0.85" stop-color="#e5a50a"/>
        <stop offset="0.925" stop-color="#f6d32d"/>
        <stop offset="1" stop-color="#e5a50a"/>
    </linearGradient>
    <filter id="b" height="100%" width="100%" x="0%" y="0%">
        <feColorMatrix in="SourceGraphic" type="matrix" values="0 0 0 0 1 0 0 0 0 1 0 0 0 0 1 0 0 0 1 0"/>
    </filter>
    <mask id="c">
        <g filter="url(#b)">
            <rect fill-opacity="0.8" height="128" width="128"/>
        </g>
    </mask>
    <clipPath id="d">
        <rect height="152" width="192"/>
    </clipPath>
    <mask id="e">
        <g filter="url(#b)">
            <rect fill-opacity="0.1" height="128" width="128"/>
        </g>
    </mask>
    <clipPath id="f">
        <rect height="152" width="192"/>
    </clipPath>
    <path d="m 32 16 h 64 c 4.417969 0 8 3.582031 8 8 v 84 c 0 6.628906 -5.371094 12 -12 12 h -64 c -2.210938 0 -4 -1.789062 -4 -4 v -92 c 0 -4.417969 3.582031 -8 8 -8 z m 0 0" fill="url(#a)"/>
    <path d="m 28 8 h 72 c 2.210938 0 4 1.789062 4 4 v 88 c 0 6.628906 -5.371094 12 -12 12 h -64 c -2.210938 0 -4 -1.789062 -4 -4 v -96 c 0 -2.210938 1.789062 -4 4 -4 z m 0 0" fill="#f6d32d"/>
    <path d="m 34 86 h 20 c 1.105469 0 2 0.894531 2 2 v 4 c 0 1.105469 -0.894531 2 -2 2 h -20 c -1.105469 0 -2 -0.894531 -2 -2 v -4 c 0 -1.105469 0.894531 -2 2 -2 z m 0 0" fill="#241f31"/>
    <path d="m 48 80 v 20 c 0 1.105469 -0.894531 2 -2 2 h -4 c -1.105469 0 -2 -0.894531 -2 -2 v -20 c 0 -1.105469 0.894531 -2 2 -2 h 4 c 1.105469 0 2 0.894531 2 2 z m 0 0" fill="#241f31"/>
    <g fill="#424048">
        <path d="m 34 84 h 20 c 1.105469 0 2 0.894531 2 2 v 4 c 0 1.105469 -0.894531 2 -2 2 h -20 c -1.105469 0 -2 -0.894531 -2 -2 v -4 c 0 -1.105469 0.894531 -2 2 -2 z m 0 0"/>
        <path d="m 48 78 v 20 c 0 1.105469 -0.894531 2 -2 2 h -4 c -1.105469 0 -2 -0.894531 -2 -2 v -20 c 0 -1.105469 0.894531 -2 2 -2 h 4 c 1.105469 0 2 0.894531 2 2 z m 0 0"/>
        <path d="m 30 12 h 68 c 1.105469 0 2 0.894531 2 2 v 42 c 0 4.417969 -3.582031 8 -8 8 h -62 c -1.105469 0 -2 -0.894531 -2 -2 v -48 c 0 -1.105469 0.894531 -2 2 -2 z m 0 0"/>
    </g>
    <path d="m 38 29 c 0 0.550781 -0.449219 1 -1 1 s -1 -0.449219 -1 -1 s 0.449219 -1 1 -1 s 1 0.449219 1 1 z m 0 0" fill="#e01b24"/>
    <path d="m 35 28 c -0.550781 0 -1 0.449219 -1 1 s 0.449219 1 1 1 c 0.175781 0 0.347656 -0.046875 0.5 -0.132812 c -0.308594 -0.179688 -0.5 -0.511719 -0.5 -0.867188 s 0.191406 -0.6875 0.5 -0.863281 c -0.152344 -0.089844 -0.324219 -0.136719 -0.5 -0.136719 z m 0 0" fill="#9a9996"/>
    <path d="m 33 28 c -0.550781 0 -1 0.449219 -1 1 s 0.449219 1 1 1 c 0.175781 0 0.347656 -0.046875 0.5 -0.132812 c -0.308594 -0.179688 -0.5 -0.511719 -0.5 -0.867188 s 0.191406 -0.6875 0.5 -0.863281 c -0.152344 -0.089844 -0.324219 -0.136719 -0.5 -0.136719 z m 0 0" fill="#9a9996"/>
    <path d="m 68 92 v 2 c 0 3.324219 2.675781 6 6 6 s 6 -2.675781 6 -6 v -2 z m 0 0" fill="#1a5fb4"/>
    <path d="m 80 92 c 0 3.3125 -2.6875 6 -6 6 s -6 -2.6875 -6 -6 s 2.6875 -6 6 -6 s 6 2.6875 6 6 z m 0 0" fill="#3584e4"/>
    <path d="m 84 84 v 2 c 0 3.324219 2.675781 6 6 6 s 6 -2.675781 6 -6 v -2 z m 0 0" fill="#a51d2d"/>
    <path d="m 96 84 c 0 3.3125 -2.6875 6 -6 6 s -6 -2.6875 -6 -6 s 2.6875 -6 6 -6 s 6 2.6875 6 6 z m 0 0" fill="#ed333b"/>
    <g clip-path="url(#d)" mask="url(#c)" transform="matrix(1 0 0 1 -8 -16)">
        <path d="m 48 36 h 48 v 36 h -48 z m 0 0" fill="#c0bfbc" fill-opacity="0.508403"/>
    </g>
    <g clip-path="url(#f)" mask="url(#e)" transform="matrix(1 0 0 1 -8 -16)">
        <path d="m 38 77 v -46 c 0 -0.550781 0.449219 -1 1 -1 h 44.453125 l -8.726563 48 h -35.726562 c -0.550781 0 -1 -0.449219 -1 -1 z m 0 0" fill="#ffffff" fill-rule="evenodd"/>
    </g>
</svg>
