<svg version="1.1" viewBox="0 0 7.9685 3.1998" xmlns="http://www.w3.org/2000/svg">
 <title>Home</title>
 <g transform="translate(-17.82 -13.53)">
  <g stroke-width=".26458" aria-label="Vala">
   <path d="m18.913 16.705-0.06821-2.8918q-0.29766 0.11162-0.46509 0.34933-0.16536 0.23771-0.16536 0.59118 0 0.17156 0.04754 0.25838 0.01034 0.01654 0.01034 0.02894-0.339 0-0.42375-0.21704-0.02894-0.07855-0.02894-0.1943 0-0.21291 0.13229-0.40928 0.13436-0.19844 0.3452-0.3514 0.48162-0.339 1.0087-0.339 0.08682 0 0.1695 0.0083l0.03721 2.6045 0.8909-2.5921h0.29559l-1.1762 3.1543z"/>
   <path d="m22.804 15.946q-0.26872 0.78341-0.84956 0.78341-0.37414 0-0.41548-0.38861-0.27698 0.38861-0.64699 0.38861-0.36794 0-0.50023-0.36174-0.04754-0.13022-0.04754-0.29559 0-0.16743 0.02894-0.3328 0.02894-0.16743 0.08888-0.3328 0.13229-0.3638 0.37827-0.60151 0.24598-0.23771 0.59324-0.23771 0.1819 0 0.26252 0.06201 0.08062 0.05994 0.08062 0.15296v0.03101l0.04547-0.22531h0.60978l-0.30386 1.4387q-0.0186 0.07235-0.0186 0.13643 0 0.1819 0.17363 0.1819 0.22531 0 0.34313-0.39894zm-1.0666-0.95498q0-0.03927-0.03721-0.09922-0.03514-0.06201-0.15296-0.06201t-0.22944 0.12609q-0.26872 0.30386-0.33693 0.8723-0.01034 0.08682-0.01034 0.18397 0 0.1881 0.07855 0.26252 0.04547 0.04548 0.11369 0.04548 0.12609 0 0.22944-0.09922 0.10335-0.10128 0.14263-0.27492z"/>
   <path d="m23.934 15.946q-0.27285 0.78341-0.91157 0.78341-0.16743 0-0.29972-0.11989-0.13022-0.11989-0.13022-0.38654 0-0.11989 0.03307-0.27698l0.45269-2.1208 0.62632-0.08475-0.48576 2.2862q-0.01654 0.07648-0.01654 0.1509 0 0.14263 0.17157 0.14263 0.12402 0 0.22944-0.10749 0.10749-0.10749 0.15296-0.26665z"/>
   <path d="m24.896 16.337q-0.26252 0.39274-0.63872 0.39274-0.3762 0-0.5085-0.36174-0.04754-0.13022-0.04754-0.29559 0-0.16743 0.02894-0.3328 0.02894-0.16743 0.08888-0.3328 0.13229-0.3638 0.37827-0.60151 0.24598-0.23771 0.59324-0.23771 0.1819 0 0.26252 0.06201 0.08062 0.05994 0.08062 0.15296v0.03101l0.04547-0.22531h0.60978l-0.30386 1.4387q-0.0186 0.07235-0.0186 0.14883 0 0.14469 0.17363 0.14469 0.05581 0 0.09302-0.0186-0.08888 0.23771-0.1509 0.30799-0.10955 0.11989-0.27905 0.11989-0.16743 0-0.27492-0.10129-0.10749-0.10335-0.13229-0.29146zm0.19844-1.3457q0-0.03927-0.03721-0.09922-0.03514-0.06201-0.15296-0.06201t-0.22944 0.12609q-0.26872 0.30386-0.33693 0.8723-0.01034 0.08682-0.01034 0.18397 0 0.1881 0.07855 0.26252 0.04547 0.04548 0.11369 0.04548 0.12609 0 0.22944-0.09922 0.10335-0.10128 0.14263-0.27492z"/>
  </g>
 </g>
</svg>
