<?xml version="1.0" encoding="UTF-8" standalone="no"?>
<svg
   width="1200"
   height="600"
   viewBox="0 0 1200 600"
   version="1.1"
   id="svg103"
   sodipodi:docname="vala-hero-next.svg"
   inkscape:version="1.2 (dc2aedaf03, 2022-05-15)"
   xmlns:inkscape="http://www.inkscape.org/namespaces/inkscape"
   xmlns:sodipodi="http://sodipodi.sourceforge.net/DTD/sodipodi-0.dtd"
   xmlns:xlink="http://www.w3.org/1999/xlink"
   xmlns="http://www.w3.org/2000/svg"
   xmlns:svg="http://www.w3.org/2000/svg"
   xmlns:rdf="http://www.w3.org/1999/02/22-rdf-syntax-ns#"
   xmlns:cc="http://creativecommons.org/ns#"
   xmlns:dc="http://purl.org/dc/elements/1.1/">
  <sodipodi:namedview
     id="namedview105"
     pagecolor="#ffffff"
     bordercolor="#666666"
     borderopacity="1.0"
     inkscape:showpageshadow="2"
     inkscape:pageopacity="0.0"
     inkscape:pagecheckerboard="0"
     inkscape:deskcolor="#d1d1d1"
     showgrid="false"
     inkscape:zoom="0.65208334"
     inkscape:cx="376.48562"
     inkscape:cy="363.45048"
     inkscape:window-width="1392"
     inkscape:window-height="773"
     inkscape:window-x="2161"
     inkscape:window-y="146"
     inkscape:window-maximized="0"
     inkscape:current-layer="Concept-3---elemenatary-Colours" />
  <title
     id="title2">Artboard</title>
  <defs
     id="defs58">
    <rect
       id="path-1"
       x="0"
       y="0"
       width="1920"
       height="1080" />
    <path
       d="M 1920,244.12872 C 1631.3684,185.43843 1437.8755,292.0472 1339.5211,563.95504 1191.9896,971.81679 478.60244,568.33856 271.06946,1078.8073 L 1920,1080.5 Z"
       id="path-3" />
    <filter
       x="-0.070106046"
       y="-0.12746479"
       width="1.1341476"
       height="1.2514085"
       filterUnits="objectBoundingBox"
       id="filter-4">
      <feOffset
         dx="-10"
         dy="-3"
         in="SourceAlpha"
         result="shadowOffsetOuter1"
         id="feOffset6" />
      <feGaussianBlur
         stdDeviation="44"
         in="shadowOffsetOuter1"
         result="shadowBlurOuter1"
         id="feGaussianBlur8" />
      <feColorMatrix
         values="0 0 0 0 0.0504613755   0 0 0 0 0.0284634296   0 0 0 0 0.0965523098  0 0 0 0.4 0"
         type="matrix"
         in="shadowBlurOuter1"
         id="feColorMatrix10" />
    </filter>
    <path
       d="m 1920,387.45056 c -239.1712,-48.63304 -399.5069,39.7071 -481.0072,265.0204 -122.2503,337.96995 -713.39031,3.63235 -885.36013,426.62644 L 1920,1080.5 Z"
       id="path-5" />
    <filter
       x="-0.084603896"
       y="-0.15382436"
       width="1.1618891"
       height="1.3033994"
       filterUnits="objectBoundingBox"
       id="filter-6">
      <feOffset
         dx="-10"
         dy="-3"
         in="SourceAlpha"
         result="shadowOffsetOuter1"
         id="feOffset14" />
      <feGaussianBlur
         stdDeviation="44"
         in="shadowOffsetOuter1"
         result="shadowBlurOuter1"
         id="feGaussianBlur16" />
      <feColorMatrix
         values="0 0 0 0 0.0582890764   0 0 0 0 0.0331506119   0 0 0 0 0.110960145  0 0 0 0.4 0"
         type="matrix"
         in="shadowBlurOuter1"
         id="feColorMatrix18" />
    </filter>
    <path
       d="m 1920,530.7724 c -189.7109,-38.57578 -316.8894,31.49571 -381.5354,210.21448 -96.9691,268.07812 -565.86206,2.88119 -702.26871,338.40052 L 1920,1080.5 Z"
       id="path-7" />
    <filter
       x="-0.10666134"
       y="-0.19392857"
       width="1.2040959"
       height="1.3825"
       filterUnits="objectBoundingBox"
       id="filter-8">
      <feOffset
         dx="-10"
         dy="-3"
         in="SourceAlpha"
         result="shadowOffsetOuter1"
         id="feOffset22" />
      <feGaussianBlur
         stdDeviation="44"
         in="shadowOffsetOuter1"
         result="shadowBlurOuter1"
         id="feGaussianBlur24" />
      <feColorMatrix
         values="0 0 0 0 0.1234702   0 0 0 0 0.0727674741   0 0 0 0 0.229704484  0 0 0 0.4 0"
         type="matrix"
         in="shadowBlurOuter1"
         id="feColorMatrix26" />
    </filter>
    <path
       d="m 1920,671.14927 c -141.2668,-28.72518 -235.9694,23.45306 -284.1076,156.53471 -72.2074,199.62252 -421.3651,2.14545 -522.9394,251.98752 L 1920,1080.5 Z"
       id="path-9" />
    <filter
       x="-0.14323825"
       y="-0.26043166"
       width="1.2740856"
       height="1.5136691"
       filterUnits="objectBoundingBox"
       id="filter-10">
      <feOffset
         dx="-10"
         dy="-3"
         in="SourceAlpha"
         result="shadowOffsetOuter1"
         id="feOffset30" />
      <feGaussianBlur
         stdDeviation="44"
         in="shadowOffsetOuter1"
         result="shadowBlurOuter1"
         id="feGaussianBlur32" />
      <feColorMatrix
         values="0 0 0 0 0.0968919544   0 0 0 0 0.0534580688   0 0 0 0 0.187896286  0 0 0 0.4 0"
         type="matrix"
         in="shadowBlurOuter1"
         id="feColorMatrix34" />
    </filter>
    <path
       d="m 1920,796.80129 c -97.9044,-19.90786 -163.5375,16.25404 -196.8995,108.48569 -50.043,138.34752 -292.0253,1.4869 -362.4208,174.63882 L 1920,1080.5 Z"
       id="path-11" />
    <filter
       x="-0.20667943"
       y="-0.37577854"
       width="1.39548"
       height="1.7411765"
       filterUnits="objectBoundingBox"
       id="filter-12">
      <feOffset
         dx="-10"
         dy="-3"
         in="SourceAlpha"
         result="shadowOffsetOuter1"
         id="feOffset38" />
      <feGaussianBlur
         stdDeviation="44"
         in="shadowOffsetOuter1"
         result="shadowBlurOuter1"
         id="feGaussianBlur40" />
      <feColorMatrix
         values="0 0 0 0 0.2   0 0 0 0 0.117647059   0 0 0 0 0.37254902  0 0 0 0.4 0"
         type="matrix"
         in="shadowBlurOuter1"
         id="feColorMatrix42" />
    </filter>
    <filter
       x="-0.073545069"
       y="-0.1831744"
       width="1.1470901"
       height="1.4172306"
       filterUnits="objectBoundingBox"
       id="filter-13">
      <feOffset
         dx="0"
         dy="10"
         in="SourceAlpha"
         result="shadowOffsetOuter1"
         id="feOffset45" />
      <feGaussianBlur
         stdDeviation="15"
         in="shadowOffsetOuter1"
         result="shadowBlurOuter1"
         id="feGaussianBlur47" />
      <feColorMatrix
         values="0 0 0 0 0.2   0 0 0 0 0.117647059   0 0 0 0 0.37254902  0 0 0 0.7 0"
         type="matrix"
         in="shadowBlurOuter1"
         result="shadowMatrixOuter1"
         id="feColorMatrix49" />
      <feMerge
         id="feMerge55">
        <feMergeNode
           in="shadowMatrixOuter1"
           id="feMergeNode51" />
        <feMergeNode
           in="SourceGraphic"
           id="feMergeNode53" />
      </feMerge>
    </filter>
  </defs>
  <g
     id="Artboard"
     stroke="none"
     stroke-width="1"
     fill="none"
     fill-rule="evenodd">
    <g
       id="Concept-3---elemenatary-Colours"
       transform="matrix(0.4626371,0,0,0.4626371,0.955815,1.0878211)">
      <rect
         id="rect581"
         fill="#331e5f"
         fill-rule="nonzero"
         x="-2.0660145"
         y="-2.3513486"
         width="2593.8257"
         height="1296.9128"
         style="stroke-width:1.27369" />
      <g
         id="g246"
         transform="matrix(1.3074006,0,0,1.1893961,-784.14426,-236.6335)">
        <g
           id="g593-Clipped"
           transform="translate(668.06193,208.0838)">
          <mask
             id="mask-2"
             fill="#ffffff">
            <use
               xlink:href="#path-1"
               id="use61" />
          </mask>
          <g
             id="rect2073" />
        </g>
        <path
           d="M 1872.8098,1288.0838"
           id="Path"
           stroke="#979797" />
        <g
           id="Path-2"
           fill-rule="nonzero"
           transform="translate(668.06193,208.0838)">
          <use
             fill="#000000"
             fill-opacity="1"
             filter="url(#filter-4)"
             xlink:href="#path-3"
             id="use67" />
          <use
             fill="#452981"
             xlink:href="#path-3"
             id="use69" />
        </g>
        <g
           id="g76"
           fill-rule="nonzero"
           transform="translate(668.06193,208.0838)">
          <use
             fill="#000000"
             fill-opacity="1"
             filter="url(#filter-6)"
             xlink:href="#path-5"
             id="use72" />
          <use
             fill="#7239b3"
             xlink:href="#path-5"
             id="use74" />
        </g>
        <g
           id="g82"
           fill-rule="nonzero"
           transform="translate(668.06193,208.0838)">
          <use
             fill="#000000"
             fill-opacity="1"
             filter="url(#filter-8)"
             xlink:href="#path-7"
             id="use78" />
          <use
             fill="#a56de2"
             xlink:href="#path-7"
             id="use80" />
        </g>
        <g
           id="g88"
           fill-rule="nonzero"
           transform="translate(668.06193,208.0838)">
          <use
             fill="#000000"
             fill-opacity="1"
             filter="url(#filter-10)"
             xlink:href="#path-9"
             id="use84" />
          <use
             fill="#cd9ef7"
             xlink:href="#path-9"
             id="use86" />
        </g>
        <g
           id="g94"
           fill-rule="nonzero"
           transform="translate(668.06193,208.0838)">
          <use
             fill="#000000"
             fill-opacity="1"
             filter="url(#filter-12)"
             xlink:href="#path-11"
             id="use90" />
          <use
             fill="#e4c6fa"
             xlink:href="#path-11"
             id="use92" />
        </g>
      </g>
      <g
         aria-label="Vala"
         id="text499"
         style="font-size:254.35px;line-height:1.25;font-family:Lobster;-inkscape-font-specification:'Lobster, Normal';fill:#ffffff;stroke-width:3.81524"
         transform="matrix(1.0298294,0,0,1.0298294,-210.11176,86.201255)">
        <path
           d="m 1283.5766,464.58315 q -18.0588,6.86745 -27.9785,21.3654 -9.9196,14.2436 -9.9196,35.1003 0,9.41095 1.7804,13.2262 1.7805,3.5609 1.7805,4.0696 -13.7349,0 -20.6024,-5.5957 -6.6131,-5.85005 -6.6131,-19.07625 0,-16.2784 13.2262,-31.5394 13.4806,-15.51535 34.3373,-24.92631 20.8567,-9.6653 41.7134,-9.6653 3.5609,0 10.174,0.5087 l 2.2891,156.42526 53.4135,-155.66221 h 17.8045 l -70.7093,189.49076 h -36.6264 z"
           id="path296" />
        <path
           d="m 1407.445,639.8303 q -14.4979,0 -24.1632,-9.91965 -9.6653,-9.91965 -9.6653,-31.0307 0,-18.8219 7.3761,-39.42425 7.6305,-20.8567 22.3828,-35.1003 15.0067,-14.49795 35.609,-14.49795 10.4284,0 15.5154,3.5609 5.087,3.5609 5.087,9.41095 v 1.78045 l 2.7978,-13.48055 h 36.6264 l -18.3132,86.479 q -1.0174,3.81525 -1.0174,8.1392 0,10.93705 10.4284,10.93705 7.1218,0 12.2088,-6.6131 5.3413,-6.6131 8.3935,-17.2958 h 10.6827 q -9.4109,27.4698 -23.4002,37.38945 -13.7349,9.6653 -27.7241,9.6653 -10.6827,0 -17.2958,-5.85005 -6.3588,-6.1044 -7.6305,-17.55015 -7.3762,10.42835 -16.5328,17.04145 -8.9022,6.35875 -21.3654,6.35875 z m 16.5328,-24.67195 q 6.3587,0 12.4631,-5.85005 6.3588,-6.1044 8.6479,-16.53275 l 12.2088,-57.4831 q 0,-3.30655 -2.5435,-6.35875 -2.5435,-3.30655 -7.8848,-3.30655 -10.174,0 -18.3132,11.95445 -8.1392,11.7001 -12.7175,28.4872 -4.5783,16.53275 -4.5783,29.25025 0,12.7175 3.5609,16.2784 3.8152,3.5609 9.1566,3.5609 z"
           id="path298" />
        <path
           d="m 1535.8915,639.8303 q -12.2088,0 -19.8393,-7.6305 -7.3761,-7.6305 -7.3761,-22.8915 0,-6.35875 2.0348,-16.53275 l 27.2154,-127.42935 37.6438,-5.08701 -29.2502,137.34901 q -1.0174,3.81525 -1.0174,8.1392 0,5.087 2.2891,7.37615 2.5435,2.0348 8.1392,2.0348 7.3762,0 13.7349,-6.1044 6.3588,-6.35875 9.1566,-16.2784 h 10.6827 q -9.4109,27.4698 -24.1632,37.38945 -14.7523,9.6653 -29.2503,9.6653 z"
           id="path300" />
        <path
           d="m 1609.1439,639.8303 q -14.498,0 -24.1633,-9.91965 -9.6653,-9.91965 -9.6653,-31.0307 0,-18.8219 7.3762,-39.42425 7.6305,-20.8567 22.3828,-35.1003 15.0066,-14.49795 35.609,-14.49795 10.4283,0 15.5153,3.5609 5.087,3.5609 5.087,9.41095 v 1.78045 l 2.7979,-13.48055 h 36.6264 l -18.3132,86.479 q -1.0174,3.81525 -1.0174,8.1392 0,5.087 2.2891,7.37615 2.5435,2.0348 8.1392,2.0348 3.5609,0 5.5957,-1.0174 -5.5957,14.2436 -10.6827,20.09365 -5.087,5.5957 -14.7523,5.5957 -10.4283,0 -17.0414,-6.1044 -6.3588,-6.35875 -7.8849,-17.55015 -15.5153,23.65455 -37.8981,23.65455 z m 16.5327,-24.67195 q 6.3588,0 12.4632,-5.85005 6.3587,-6.1044 8.6479,-16.53275 l 12.2088,-57.4831 q 0,-3.30655 -2.5435,-6.35875 -2.5435,-3.30655 -7.8849,-3.30655 -10.174,0 -18.3132,11.95445 -8.1392,11.7001 -12.7175,28.4872 -4.5783,16.53275 -4.5783,29.25025 0,12.7175 3.5609,16.2784 3.8153,3.5609 9.1566,3.5609 z"
           id="path302" />
      </g>
    </g>
  </g>
  <metadata
     id="metadata377">
    <rdf:RDF>
      <cc:Work
         rdf:about="">
        <dc:title>Artboard</dc:title>
      </cc:Work>
    </rdf:RDF>
  </metadata>
</svg>
